<svg width="357" height="168" viewBox="0 0 357 168" fill="none" xmlns="http://www.w3.org/2000/svg">
<g opacity="0.7" filter="url(#filter0_f_116_464)">
<path d="M82.3819 136.016V120.549H31.0642V95.1789C39.8822 77.9284 52.5068 56.7749 68.9381 31.7184H111.293V97.0581H123.725V120.549H111.293V136.016H82.3819ZM56.5062 97.4195V98.2869H83.2492V51.8118H82.671C76.5996 61.1598 71.7088 69.0141 67.9985 75.3746C64.2882 81.6869 60.4574 89.0352 56.5062 97.4195Z" fill="#F07373"/>
<path d="M179.235 138.907C165.068 138.907 153.865 133.992 145.626 124.163C137.386 114.284 133.266 100.768 133.266 83.6143C133.266 66.4121 137.386 52.9683 145.626 43.283C153.913 33.5977 165.117 28.755 179.235 28.755C193.353 28.755 204.532 33.5977 212.772 43.283C221.012 52.9201 225.132 66.3398 225.132 83.5421C225.132 100.696 221.012 114.212 212.772 124.09C204.532 133.968 193.353 138.907 179.235 138.907ZM168.538 107.249C171.236 112.646 174.802 115.345 179.235 115.345C183.668 115.345 187.21 112.646 189.86 107.249C192.558 101.853 193.908 93.9742 193.908 83.6143C193.908 73.2544 192.582 65.4484 189.932 60.1961C187.282 54.9439 183.716 52.3178 179.235 52.3178C174.754 52.3178 171.164 54.9439 168.466 60.1961C165.815 65.4484 164.49 73.2544 164.49 83.6143C164.49 93.9742 165.839 101.853 168.538 107.249Z" fill="#F07373"/>
<path d="M286.785 136.016V120.549H235.468V95.1789C244.286 77.9284 256.91 56.7749 273.342 31.7184H315.697V97.0581H328.129V120.549H315.697V136.016H286.785ZM260.91 97.4195V98.2869H287.653V51.8118H287.074C281.003 61.1598 276.112 69.0141 272.402 75.3746C268.692 81.6869 264.861 89.0352 260.91 97.4195Z" fill="#F07373"/>
</g>
<path d="M52.088 122.289V106.822H0.770264V81.452C9.58823 64.2015 22.2129 43.048 38.6442 17.9915H80.9993V83.3312H93.4312V106.822H80.9993V122.289H52.088ZM26.2123 83.6926V84.5599H52.9553V38.0849H52.3771C46.3057 47.4329 41.4148 55.2872 37.7045 61.6477C33.9943 67.96 30.1635 75.3083 26.2123 83.6926Z" fill="#F07373"/>
<path d="M148.941 125.18C134.774 125.18 123.571 120.265 115.332 110.436C107.092 100.558 102.972 87.0415 102.972 69.8874C102.972 52.6851 107.092 39.2414 115.332 29.556C123.62 19.8707 134.823 15.0281 148.941 15.0281C163.059 15.0281 174.239 19.8707 182.478 29.556C190.718 39.1932 194.838 52.6129 194.838 69.8151C194.838 86.9692 190.718 100.485 182.478 110.363C174.239 120.241 163.059 125.18 148.941 125.18ZM138.244 93.5225C140.942 98.9193 144.508 101.618 148.941 101.618C153.374 101.618 156.916 98.9193 159.566 93.5225C162.264 88.1257 163.614 80.2473 163.614 69.8874C163.614 59.5275 162.288 51.7214 159.638 46.4692C156.988 41.217 153.422 38.5908 148.941 38.5908C144.46 38.5908 140.87 41.217 138.172 46.4692C135.521 51.7214 134.196 59.5275 134.196 69.8874C134.196 80.2473 135.545 88.1257 138.244 93.5225Z" fill="#F07373"/>
<path d="M256.491 122.289V106.822H205.174V81.452C213.992 64.2015 226.616 43.048 243.048 17.9915H285.403V83.3312H297.835V106.822H285.403V122.289H256.491ZM230.616 83.6926V84.5599H257.359V38.0849H256.78C250.709 47.4329 245.818 55.2872 242.108 61.6477C238.398 67.96 234.567 75.3083 230.616 83.6926Z" fill="#F07373"/>
<g opacity="0.5">
<path d="M64.8682 126.549V111.082H13.5505V85.712C22.3685 68.4615 34.9931 47.308 51.4244 22.2515H93.7796V87.5912H106.211V111.082H93.7796V126.549H64.8682ZM38.9925 87.9526V88.8199H65.7356V42.3449H65.1573C59.086 51.6929 54.1951 59.5472 50.4848 65.9077C46.7745 72.22 42.9438 79.5683 38.9925 87.9526Z" fill="#F07373"/>
<path d="M161.721 129.44C147.555 129.44 136.352 124.525 128.112 114.696C119.872 104.818 115.752 91.3015 115.752 74.1474C115.752 56.9452 119.872 43.5014 128.112 33.8161C136.4 24.1307 147.603 19.2881 161.721 19.2881C175.84 19.2881 187.019 24.1307 195.259 33.8161C203.498 43.4532 207.618 56.8729 207.618 74.0751C207.618 91.2292 203.498 104.745 195.259 114.623C187.019 124.501 175.84 129.44 161.721 129.44ZM151.024 97.7825C153.723 103.179 157.288 105.878 161.721 105.878C166.154 105.878 169.696 103.179 172.346 97.7825C175.045 92.3857 176.394 84.5073 176.394 74.1474C176.394 63.7875 175.069 55.9814 172.419 50.7292C169.768 45.477 166.203 42.8509 161.721 42.8509C157.24 42.8509 153.65 45.477 150.952 50.7292C148.302 55.9814 146.977 63.7875 146.977 74.1474C146.977 84.5073 148.326 92.3857 151.024 97.7825Z" fill="#F07373"/>
<path d="M269.272 126.549V111.082H217.954V85.712C226.772 68.4615 239.397 47.308 255.828 22.2515H298.183V87.5912H310.615V111.082H298.183V126.549H269.272ZM243.396 87.9526V88.8199H270.139V42.3449H269.561C263.489 51.6929 258.599 59.5472 254.888 65.9077C251.178 72.22 247.347 79.5683 243.396 87.9526Z" fill="#F07373"/>
</g>
<defs>
<filter id="filter0_f_116_464" x="2.66365" y="0.354443" width="353.866" height="166.953" filterUnits="userSpaceOnUse" color-interpolation-filters="sRGB">
<feFlood flood-opacity="0" result="BackgroundImageFix"/>
<feBlend mode="normal" in="SourceGraphic" in2="BackgroundImageFix" result="shape"/>
<feGaussianBlur stdDeviation="14.2003" result="effect1_foregroundBlur_116_464"/>
</filter>
</defs>
</svg>
