<svg width="732" height="199" viewBox="0 0 732 199" fill="none" xmlns="http://www.w3.org/2000/svg">
<rect x="4" y="113" width="82" height="82" stroke="#0B6082" stroke-width="8"/>
<rect x="102" y="15" width="82" height="82" stroke="#0B6082" stroke-width="8"/>
<rect x="98" y="109" width="90" height="90" fill="#0B6082"/>
<path d="M264.845 60H241.223V13.4971H264.071C268.819 13.4971 272.515 14.5283 275.157 16.5908C277.821 18.6318 279.153 21.4678 279.153 25.0986C279.153 27.7412 278.262 29.9971 276.479 31.8662C274.695 33.7139 272.439 34.8096 269.711 35.1533V35.4111C272.891 35.4971 275.608 36.6035 277.864 38.7305C280.12 40.8359 281.248 43.4141 281.248 46.4648C281.248 50.5469 279.755 53.8232 276.769 56.2939C273.782 58.7646 269.808 60 264.845 60ZM254.887 22.875V32.124H260.172C261.912 32.124 263.298 31.7051 264.329 30.8672C265.36 30.0293 265.876 28.9014 265.876 27.4834C265.876 26.0439 265.382 24.916 264.394 24.0996C263.427 23.2832 262.084 22.875 260.365 22.875H254.887ZM254.887 50.6221H260.72C262.847 50.6221 264.479 50.1602 265.618 49.2363C266.778 48.291 267.358 46.9482 267.358 45.208C267.358 43.5537 266.778 42.2646 265.618 41.3408C264.458 40.417 262.857 39.9551 260.816 39.9551H254.887V50.6221ZM290.948 19.1689C295.159 14.8506 300.863 12.6914 308.061 12.6914C315.258 12.6914 320.962 14.8506 325.173 19.1689C329.384 23.4873 331.489 29.3525 331.489 36.7646C331.489 44.1768 329.384 50.042 325.173 54.3604C320.962 58.6572 315.258 60.8057 308.061 60.8057C300.842 60.8057 295.127 58.6572 290.916 54.3604C286.727 50.042 284.632 44.1768 284.632 36.7646C284.632 29.3525 286.737 23.4873 290.948 19.1689ZM314.957 27.1611C313.217 24.7764 310.918 23.584 308.061 23.584C305.203 23.584 302.904 24.7764 301.164 27.1611C299.424 29.5459 298.554 32.7471 298.554 36.7646C298.554 40.7607 299.413 43.9512 301.132 46.3359C302.872 48.7207 305.182 49.9131 308.061 49.9131C310.939 49.9131 313.238 48.7207 314.957 46.3359C316.697 43.9512 317.567 40.7607 317.567 36.7646C317.567 32.7471 316.697 29.5459 314.957 27.1611ZM342.118 46.3037H355.04C355.234 47.5928 356.029 48.6455 357.425 49.4619C358.822 50.2783 360.454 50.6865 362.324 50.6865C364.343 50.6865 365.944 50.3213 367.125 49.5908C368.329 48.8604 368.93 47.9258 368.93 46.7871C368.93 45.7129 368.447 44.8965 367.48 44.3379C366.513 43.7578 364.762 43.2422 362.227 42.791L356.072 41.6953C351.818 40.9648 348.552 39.418 346.275 37.0547C344.019 34.6914 342.891 31.6836 342.891 28.0312C342.891 23.3906 344.674 19.6738 348.241 16.8809C351.807 14.0879 356.405 12.6914 362.034 12.6914C368.157 12.6914 372.905 14.002 376.278 16.623C379.651 19.2441 381.359 22.832 381.402 27.3867H368.93C368.887 25.9688 368.243 24.8516 366.996 24.0352C365.75 23.1973 364.182 22.7783 362.291 22.7783C360.508 22.7783 359.09 23.1221 358.037 23.8096C356.985 24.4971 356.458 25.4209 356.458 26.5811C356.458 27.6768 356.953 28.5469 357.941 29.1914C358.929 29.8359 360.54 30.3516 362.775 30.7383L369.156 31.834C373.667 32.6289 376.997 34.1221 379.146 36.3135C381.316 38.4834 382.401 41.459 382.401 45.2402C382.401 49.9883 380.553 53.7695 376.858 56.584C373.184 59.3984 368.253 60.8057 362.066 60.8057C355.792 60.8057 350.905 59.5488 347.403 57.0352C343.901 54.5 342.139 50.9229 342.118 46.3037ZM437.856 60H424.192V42.0176H407.821V60H394.157V13.4971H407.821V31.1572H424.192V13.4971H437.856V60ZM481.008 60H467.344V24.3574H455.097V13.4971H493.254V24.3574H481.008V60ZM511.591 13.4971V41.9209C511.591 44.3701 512.171 46.25 513.331 47.5605C514.513 48.8496 516.21 49.4941 518.423 49.4941C520.636 49.4941 522.322 48.8496 523.482 47.5605C524.664 46.25 525.255 44.3701 525.255 41.9209V13.4971H538.919V43.4355C538.919 48.7207 537.039 52.9424 533.279 56.1006C529.541 59.2373 524.589 60.8057 518.423 60.8057C512.257 60.8057 507.294 59.2373 503.534 56.1006C499.796 52.9424 497.927 48.7207 497.927 43.4355V13.4971H511.591ZM559.028 23.584V35.3789H564.668C566.58 35.3789 568.084 34.8418 569.18 33.7676C570.297 32.6934 570.855 31.2754 570.855 29.5137C570.855 27.7734 570.286 26.3555 569.147 25.2598C568.009 24.1426 566.526 23.584 564.7 23.584H559.028ZM559.028 44.4023V60H545.364V13.4971H566.021C572.166 13.4971 576.828 14.8721 580.008 17.6221C583.209 20.3721 584.809 24.2607 584.809 29.2881C584.809 32.1025 584.143 34.7021 582.811 37.0869C581.501 39.4717 579.664 41.2334 577.301 42.3721L586.131 60H570.855L563.508 44.4023H559.028ZM634.245 40.2129C634.245 46.5938 632.333 51.6211 628.509 55.2949C624.706 58.9688 619.442 60.8057 612.718 60.8057C605.305 60.8057 599.537 58.7109 595.412 54.5215C591.287 50.332 589.224 44.3916 589.224 36.7002C589.224 29.1162 591.265 23.2188 595.347 19.0078C599.43 14.7969 605.08 12.6914 612.299 12.6914C618.099 12.6914 622.987 14.2275 626.962 17.2998C630.936 20.3721 633.181 24.3037 633.697 29.0947H620.259C619.807 27.376 618.862 26.0117 617.423 25.002C616.005 23.9707 614.318 23.4551 612.363 23.4551C609.463 23.4551 607.196 24.6045 605.563 26.9033C603.952 29.1807 603.146 32.3818 603.146 36.5068C603.146 40.7178 604.038 44.0264 605.821 46.4326C607.604 48.8389 610.011 50.042 613.04 50.042C615.253 50.042 617.09 49.4727 618.551 48.334C620.012 47.1953 620.839 45.6914 621.032 43.8223L621.096 43.1777H614.007V34.0898H634.245V40.2129ZM667.761 60L665.344 50.751H651.164L648.747 60H634.825L650.004 13.4971H667.148L682.327 60H667.761ZM658.125 24.2285L653.645 41.1152H662.862L658.383 24.2285H658.125ZM699.407 60H686.516V13.4971H697.119L715.069 37.6025H715.327V13.4971H728.218V60H717.744L699.665 35.5078H699.407V60ZM246.411 87.1689C250.622 82.8506 256.326 80.6914 263.523 80.6914C270.721 80.6914 276.425 82.8506 280.636 87.1689C284.847 91.4873 286.952 97.3525 286.952 104.765C286.952 112.177 284.847 118.042 280.636 122.36C276.425 126.657 270.721 128.806 263.523 128.806C256.305 128.806 250.59 126.657 246.379 122.36C242.189 118.042 240.095 112.177 240.095 104.765C240.095 97.3525 242.2 91.4873 246.411 87.1689ZM270.42 95.1611C268.68 92.7764 266.381 91.584 263.523 91.584C260.666 91.584 258.367 92.7764 256.627 95.1611C254.887 97.5459 254.017 100.747 254.017 104.765C254.017 108.761 254.876 111.951 256.595 114.336C258.335 116.721 260.645 117.913 263.523 117.913C266.402 117.913 268.701 116.721 270.42 114.336C272.16 111.951 273.03 108.761 273.03 104.765C273.03 100.747 272.16 97.5459 270.42 95.1611ZM315.892 128H292.27V81.4971H315.118C319.866 81.4971 323.562 82.5283 326.204 84.5908C328.868 86.6318 330.2 89.4678 330.2 93.0986C330.2 95.7412 329.309 97.9971 327.525 99.8662C325.742 101.714 323.486 102.81 320.758 103.153V103.411C323.938 103.497 326.655 104.604 328.911 106.73C331.167 108.836 332.295 111.414 332.295 114.465C332.295 118.547 330.802 121.823 327.815 124.294C324.829 126.765 320.854 128 315.892 128ZM305.934 90.875V100.124H311.219C312.959 100.124 314.345 99.7051 315.376 98.8672C316.407 98.0293 316.923 96.9014 316.923 95.4834C316.923 94.0439 316.429 92.916 315.44 92.0996C314.474 91.2832 313.131 90.875 311.412 90.875H305.934ZM305.934 118.622H311.767C313.894 118.622 315.526 118.16 316.665 117.236C317.825 116.291 318.405 114.948 318.405 113.208C318.405 111.554 317.825 110.265 316.665 109.341C315.505 108.417 313.904 107.955 311.863 107.955H305.934V118.622ZM362.169 128H348.505V113.272L332.617 81.4971H347.216L355.369 100.35H355.627L363.78 81.4971H378.057L362.169 113.272V128ZM415.053 117.14V128H382.246V81.4971H415.053V92.3574H395.91V99.8662H413.86V109.663H395.91V117.14H415.053ZM435.098 128H421.434V81.4971H435.098V101.22H435.355L449.729 81.4971H464.069L448.762 102.154L464.778 128H448.891L438.739 110.92L435.098 115.818V128ZM492.171 128H478.507V92.3574H466.261V81.4971H504.417V92.3574H492.171V128ZM540.994 117.14V128H509.09V81.4971H522.754V117.14H540.994ZM576.83 128L574.413 118.751H560.233L557.816 128H543.895L559.073 81.4971H576.218L591.396 128H576.83ZM567.194 92.2285L562.715 109.115H571.932L567.452 92.2285H567.194ZM609.25 91.584V103.379H614.89C616.802 103.379 618.306 102.842 619.401 101.768C620.519 100.693 621.077 99.2754 621.077 97.5137C621.077 95.7734 620.508 94.3555 619.369 93.2598C618.23 92.1426 616.748 91.584 614.922 91.584H609.25ZM609.25 112.402V128H595.586V81.4971H616.243C622.388 81.4971 627.05 82.8721 630.229 85.6221C633.431 88.3721 635.031 92.2607 635.031 97.2881C635.031 100.103 634.365 102.702 633.033 105.087C631.723 107.472 629.886 109.233 627.522 110.372L636.353 128H621.077L613.729 112.402H609.25ZM276.721 186H273.471V155.938H273.318L260.572 185.822H257.551L244.83 155.938H244.678V186H241.428V149.361H245.414L258.998 181.43H259.15L272.709 149.361H276.721V186ZM307.926 186L303.863 174.777H288.477L284.414 186H280.732L294.443 149.361H297.896L311.582 186H307.926ZM296.094 153.652L289.518 171.781H302.822L296.246 153.652H296.094ZM319.072 152.459V167.922H328.264C330.938 167.922 333.012 167.245 334.484 165.891C335.957 164.536 336.693 162.632 336.693 160.178C336.693 157.757 335.932 155.87 334.408 154.516C332.902 153.145 330.811 152.459 328.137 152.459H319.072ZM319.072 170.994V186H315.619V149.361H328.543C332.115 149.361 334.958 150.335 337.074 152.281C339.207 154.211 340.273 156.809 340.273 160.076C340.273 162.666 339.579 164.883 338.191 166.729C336.803 168.574 334.882 169.809 332.428 170.436L341.314 186H337.252L328.822 170.994H328.264H319.072ZM349.389 186H345.936V149.361H349.389V168.354H349.592L367.01 149.361H371.402L356.346 165.561L372.9 186H368.457L353.908 168.023L349.389 172.924V186ZM401.008 186L396.945 174.777H381.559L377.496 186H373.814L387.525 149.361H390.979L404.664 186H401.008ZM389.176 153.652L382.6 171.781H395.904L389.328 153.652H389.176ZM407.482 186V183.486L429.471 152.662V152.51H408.193V149.361H433.863V151.9L411.926 182.699V182.852H434.168V186H407.482ZM443.232 186H439.779V149.361H443.232V186Z" fill="#0B6082"/>
<path d="M329.186 10.4971H338.596L336.243 30.3809H324.319L329.186 10.4971Z" fill="#0B6082"/>
<path d="M329.186 10.4971V9.49707H328.401L328.214 10.2594L329.186 10.4971ZM338.596 10.4971L339.589 10.6146L339.721 9.49707H338.596V10.4971ZM336.243 30.3809V31.3809H337.132L337.236 30.4984L336.243 30.3809ZM324.319 30.3809L323.348 30.1431L323.045 31.3809H324.319V30.3809ZM329.186 11.4971H338.596V9.49707H329.186V11.4971ZM337.603 10.3796L335.25 30.2634L337.236 30.4984L339.589 10.6146L337.603 10.3796ZM336.243 29.3809H324.319V31.3809H336.243V29.3809ZM325.291 30.6186L330.157 10.7348L328.214 10.2594L323.348 30.1431L325.291 30.6186Z" fill="white"/>
</svg>
