<svg width="730" height="196" viewBox="0 0 730 196" fill="none" xmlns="http://www.w3.org/2000/svg">
<rect x="4.2522" y="110" width="82" height="82" stroke="#0B6082" stroke-width="8"/>
<rect x="102.252" y="12" width="82" height="82" stroke="#0B6082" stroke-width="8"/>
<rect x="98.2522" y="106" width="90" height="90" fill="#0B6082"/>
<path d="M236.475 10.4971H256.359C263.47 10.4971 268.981 12.4736 272.891 16.4268C276.801 20.3584 278.756 26.0195 278.756 33.4102C278.756 40.8438 276.78 46.6338 272.826 50.7803C268.895 54.9268 263.406 57 256.359 57H236.475V10.4971ZM250.139 21.3574V46.1396H254.425C261.365 46.1396 264.834 41.8965 264.834 33.4102C264.834 29.5215 263.921 26.5459 262.095 24.4834C260.29 22.3994 257.734 21.3574 254.425 21.3574H250.139ZM313.527 57L311.11 47.751H296.931L294.514 57H280.592L295.77 10.4971H312.915L328.094 57H313.527ZM303.892 21.2285L299.412 38.1152H308.629L304.149 21.2285H303.892ZM357.386 57H339.662L325.546 10.4971H341.273L348.717 44.0449H348.975L356.42 10.4971H371.502L357.386 57ZM408.915 46.1396V57H377.011V10.4971H390.675V46.1396H408.915ZM446.071 57L443.654 47.751H429.475L427.058 57H413.136L428.314 10.4971H445.459L460.638 57H446.071ZM436.436 21.2285L431.956 38.1152H441.173L436.693 21.2285H436.436ZM484.162 57H470.498V21.3574H458.252V10.4971H496.408V21.3574H484.162V57ZM568.915 57H556.991V30.0586H556.733L546.26 56.4521H538.944L528.471 30.0586H528.213V57H516.289V10.4971H532.08L542.489 37.6318H542.747L553.124 10.4971H568.915V57ZM590.377 10.4971V38.9209C590.377 41.3701 590.957 43.25 592.117 44.5605C593.299 45.8496 594.996 46.4941 597.209 46.4941C599.422 46.4941 601.108 45.8496 602.268 44.5605C603.45 43.25 604.041 41.3701 604.041 38.9209V10.4971H617.705V40.4355C617.705 45.7207 615.825 49.9424 612.065 53.1006C608.327 56.2373 603.375 57.8057 597.209 57.8057C591.043 57.8057 586.08 56.2373 582.32 53.1006C578.582 49.9424 576.713 45.7207 576.713 40.4355V10.4971H590.377ZM657.374 46.1396V57H625.47V10.4971H639.134V46.1396H657.374ZM677.515 57H663.851V10.4971H677.515V30.2197H677.773L692.146 10.4971H706.486L691.179 31.1543L707.195 57H691.308L681.156 39.9199L677.515 44.8184V57ZM725.434 57H711.77V10.4971H725.434V57ZM241.663 84.1689C245.874 79.8506 251.578 77.6914 258.776 77.6914C265.973 77.6914 271.677 79.8506 275.888 84.1689C280.099 88.4873 282.204 94.3525 282.204 101.765C282.204 109.177 280.099 115.042 275.888 119.36C271.677 123.657 265.973 125.806 258.776 125.806C251.557 125.806 245.842 123.657 241.631 119.36C237.442 115.042 235.347 109.177 235.347 101.765C235.347 94.3525 237.452 88.4873 241.663 84.1689ZM265.672 92.1611C263.932 89.7764 261.633 88.584 258.776 88.584C255.918 88.584 253.619 89.7764 251.879 92.1611C250.139 94.5459 249.269 97.7471 249.269 101.765C249.269 105.761 250.128 108.951 251.847 111.336C253.587 113.721 255.897 114.913 258.776 114.913C261.655 114.913 263.953 113.721 265.672 111.336C267.412 108.951 268.282 105.761 268.282 101.765C268.282 97.7471 267.412 94.5459 265.672 92.1611ZM311.144 125H287.522V78.4971H310.37C315.118 78.4971 318.814 79.5283 321.456 81.5908C324.12 83.6318 325.452 86.4678 325.452 90.0986C325.452 92.7412 324.561 94.9971 322.778 96.8662C320.994 98.7139 318.739 99.8096 316.01 100.153V100.411C319.19 100.497 321.907 101.604 324.163 103.73C326.419 105.836 327.547 108.414 327.547 111.465C327.547 115.547 326.054 118.823 323.068 121.294C320.081 123.765 316.107 125 311.144 125ZM301.186 87.875V97.124H306.471C308.211 97.124 309.597 96.7051 310.628 95.8672C311.659 95.0293 312.175 93.9014 312.175 92.4834C312.175 91.0439 311.681 89.916 310.693 89.0996C309.726 88.2832 308.383 87.875 306.664 87.875H301.186ZM301.186 115.622H307.019C309.146 115.622 310.779 115.16 311.917 114.236C313.077 113.291 313.657 111.948 313.657 110.208C313.657 108.554 313.077 107.265 311.917 106.341C310.757 105.417 309.156 104.955 307.115 104.955H301.186V115.622ZM357.421 125H343.757V110.272L327.869 78.4971H342.468L350.621 97.3496H350.879L359.032 78.4971H373.309L357.421 110.272V125ZM410.305 114.14V125H377.498V78.4971H410.305V89.3574H391.162V96.8662H409.113V106.663H391.162V114.14H410.305ZM430.35 125H416.686V78.4971H430.35V98.2197H430.608L444.981 78.4971H459.322L444.014 99.1543L460.031 125H444.143L433.991 107.92L430.35 112.818V125ZM487.423 125H473.759V89.3574H461.513V78.4971H499.669V89.3574H487.423V125ZM536.246 114.14V125H504.342V78.4971H518.006V114.14H536.246ZM572.082 125L569.665 115.751H555.486L553.069 125H539.147L554.325 78.4971H571.47L586.649 125H572.082ZM562.447 89.2285L557.967 106.115H567.184L562.704 89.2285H562.447ZM604.502 88.584V100.379H610.142C612.054 100.379 613.558 99.8418 614.654 98.7676C615.771 97.6934 616.329 96.2754 616.329 94.5137C616.329 92.7734 615.76 91.3555 614.621 90.2598C613.483 89.1426 612 88.584 610.174 88.584H604.502ZM604.502 109.402V125H590.838V78.4971H611.495C617.64 78.4971 622.302 79.8721 625.482 82.6221C628.683 85.3721 630.283 89.2607 630.283 94.2881C630.283 97.1025 629.617 99.7021 628.285 102.087C626.975 104.472 625.138 106.233 622.775 107.372L631.605 125H616.329L608.982 109.402H604.502ZM649.49 125H635.826V78.4971H649.49V125ZM271.973 183H268.723V152.938H268.571L255.824 182.822H252.803L240.082 152.938H239.93V183H236.68V146.361H240.666L254.25 178.43H254.403L267.961 146.361H271.973V183ZM303.178 183L299.115 171.777H283.729L279.666 183H275.985L289.696 146.361H293.149L306.834 183H303.178ZM291.346 150.652L284.77 168.781H298.074L291.498 150.652H291.346ZM314.324 149.459V164.922H323.516C326.19 164.922 328.264 164.245 329.737 162.891C331.209 161.536 331.946 159.632 331.946 157.178C331.946 154.757 331.184 152.87 329.66 151.516C328.154 150.145 326.063 149.459 323.389 149.459H314.324ZM314.324 167.994V183H310.871V146.361H323.795C327.367 146.361 330.211 147.335 332.326 149.281C334.459 151.211 335.526 153.809 335.526 157.076C335.526 159.666 334.832 161.883 333.444 163.729C332.056 165.574 330.134 166.809 327.68 167.436L336.567 183H332.504L324.074 167.994H323.516H314.324ZM344.641 183H341.188V146.361H344.641V165.354H344.844L362.262 146.361H366.655L351.598 162.561L368.153 183H363.709L349.16 165.023L344.641 169.924V183ZM396.26 183L392.198 171.777H376.811L372.748 183H369.067L382.778 146.361H386.231L399.916 183H396.26ZM384.428 150.652L377.852 168.781H391.156L384.58 150.652H384.428ZM402.735 183V180.486L424.723 149.662V149.51H403.446V146.361H429.115V148.9L407.178 179.699V179.852H429.42V183H402.735ZM438.485 183H435.031V146.361H438.485V183Z" fill="#0B6082"/>
</svg>
