<svg width="615" height="166" viewBox="0 0 615 166" fill="none" xmlns="http://www.w3.org/2000/svg">
<path d="M18.7897 101.174L81.7652 68.9754V27.9913L18.7897 60.1898V101.174Z" fill="#7C8ABC"/>
<path d="M147.21 101.174L84.2349 68.9754V27.9913L147.21 60.1898V101.174Z" fill="#102364"/>
<path d="M42.0107 46.7168L82.2117 26.1626V-2.25501e-05L42.0107 20.5542V46.7168Z" fill="#7C8ABC"/>
<path d="M123.989 46.7168L83.7883 26.1626V-2.25501e-05L123.989 20.5542V46.7168Z" fill="#102364"/>
<path d="M0 166L81.4038 124.38V71.4025L0 113.023V166Z" fill="#7C8ABC"/>
<path d="M166 166L84.5962 124.38V71.4025L166 113.023V166Z" fill="#102364"/>
<g opacity="0.99">
<path d="M206.809 58.0788H195.703V33.0002H206.617C208.97 33.0002 210.835 33.5622 212.214 34.6861C213.592 35.8099 214.282 37.3335 214.282 39.2568C214.282 40.624 213.83 41.8232 212.926 42.8544C212.034 43.8856 210.916 44.4997 209.572 44.6966V44.8357C211.287 44.9631 212.7 45.5946 213.813 46.73C214.925 47.8655 215.481 49.2558 215.481 50.9011C215.481 53.1141 214.705 54.8636 213.152 56.1497C211.6 57.4358 209.485 58.0788 206.809 58.0788ZM200.952 36.9106V43.4279H204.723C206.125 43.4279 207.208 43.1383 207.973 42.5589C208.738 41.968 209.12 41.1396 209.12 40.0737C209.12 39.0657 208.784 38.2894 208.112 37.7448C207.44 37.1887 206.49 36.9106 205.262 36.9106H200.952ZM200.952 54.1684H205.47C206.988 54.1684 208.141 53.8556 208.929 53.2299C209.728 52.5927 210.128 51.6774 210.128 50.484C210.128 49.3138 209.717 48.4216 208.894 47.8075C208.083 47.1935 206.901 46.8864 205.349 46.8864H200.952V54.1684Z" fill="#102364"/>
<path d="M233.33 55.9064C231.673 57.6211 229.425 58.4785 226.586 58.4785C223.748 58.4785 221.5 57.6154 219.843 55.889C218.186 54.1626 217.358 51.7816 217.358 48.746C217.358 45.7452 218.192 43.3816 219.861 41.6552C221.541 39.9173 223.783 39.0483 226.586 39.0483C229.402 39.0483 231.644 39.9173 233.312 41.6552C234.981 43.3816 235.815 45.7452 235.815 48.746C235.815 51.7932 234.987 54.18 233.33 55.9064ZM226.586 54.6029C227.838 54.6029 228.828 54.0931 229.558 53.0735C230.288 52.0539 230.653 50.6172 230.653 48.7634C230.653 46.9328 230.288 45.5019 229.558 44.4707C228.828 43.4395 227.838 42.9239 226.586 42.9239C225.335 42.9239 224.339 43.4395 223.597 44.4707C222.867 45.5019 222.502 46.9328 222.502 48.7634C222.502 50.6172 222.867 52.0539 223.597 53.0735C224.327 54.0931 225.324 54.6029 226.586 54.6029Z" fill="#102364"/>
<path d="M244.696 44.9226C244.696 43.1498 245.408 41.7305 246.834 40.6646C248.259 39.5871 250.165 39.0483 252.551 39.0483C254.88 39.0483 256.751 39.5929 258.165 40.682C259.578 41.7711 260.303 43.2194 260.337 45.0268H255.662C255.604 44.2737 255.292 43.6828 254.724 43.2541C254.168 42.8254 253.42 42.6111 252.482 42.6111C251.601 42.6111 250.895 42.7965 250.362 43.1672C249.84 43.5264 249.58 44.0072 249.58 44.6097C249.58 45.5135 250.391 46.1565 252.013 46.5388L255.575 47.3035C257.441 47.7206 258.779 48.3289 259.59 49.1284C260.413 49.9163 260.824 51.0054 260.824 52.3957C260.824 54.2264 260.059 55.6978 258.53 56.8101C257.001 57.9224 255.002 58.4785 252.534 58.4785C250.078 58.4785 248.114 57.934 246.642 56.8449C245.171 55.7557 244.366 54.2901 244.227 52.4479H249.18C249.307 53.2357 249.666 53.844 250.257 54.2727C250.86 54.7014 251.665 54.9157 252.673 54.9157C253.635 54.9157 254.388 54.7419 254.932 54.3944C255.489 54.0352 255.767 53.5486 255.767 52.9345C255.767 52.4594 255.593 52.0829 255.245 51.8048C254.898 51.5152 254.307 51.2718 253.473 51.0749L250.031 50.3102C246.474 49.4991 244.696 47.7033 244.696 44.9226Z" fill="#102364"/>
<path d="M263.483 58.0788V33.0002H268.471V42.7675H268.575C269.073 41.5857 269.821 40.682 270.817 40.0563C271.825 39.4191 273.03 39.1004 274.432 39.1004C276.483 39.1004 278.076 39.7261 279.211 40.9774C280.359 42.2171 280.932 43.9203 280.932 46.087V58.0788H275.857V47.1645C275.857 45.9479 275.556 45.0037 274.954 44.3317C274.363 43.6481 273.499 43.3063 272.364 43.3063C271.182 43.3063 270.249 43.6886 269.566 44.4533C268.894 45.2064 268.558 46.2028 268.558 47.4426V58.0788H263.483Z" fill="#102364"/>
<path d="M292.594 35.1553H297.668V39.448H301.11V43.2715H297.668V52.1872C297.668 53.5891 298.398 54.2901 299.858 54.2901C300.333 54.2901 300.745 54.2611 301.092 54.2032V57.9398C300.501 58.0788 299.696 58.1483 298.676 58.1483C296.487 58.1483 294.923 57.7544 293.984 56.9665C293.057 56.1786 292.594 54.8752 292.594 53.0561V43.2715H289.969V39.448H292.594V35.1553Z" fill="#102364"/>
<path d="M321.096 39.448V58.0788H316.195V54.7246H316.091C315.117 57.1925 313.258 58.4264 310.512 58.4264C308.473 58.4264 306.845 57.8065 305.628 56.5668C304.412 55.3155 303.803 53.6123 303.803 51.4572V39.448H308.878V50.3971C308.878 51.6368 309.174 52.5811 309.765 53.2299C310.367 53.8788 311.23 54.2032 312.354 54.2032C313.478 54.2032 314.37 53.8324 315.031 53.0909C315.691 52.3494 316.021 51.3587 316.021 50.119V39.448H321.096Z" fill="#102364"/>
<path d="M324.398 58.0788V39.448H329.299V42.8023H329.403C329.728 41.6205 330.272 40.7167 331.037 40.0911C331.802 39.4654 332.734 39.1526 333.835 39.1526C334.368 39.1526 334.849 39.2163 335.278 39.3437V43.8103C334.803 43.6133 334.189 43.5148 333.435 43.5148C332.184 43.5148 331.211 43.8798 330.516 44.6097C329.82 45.3397 329.473 46.3593 329.473 47.6685V58.0788H324.398Z" fill="#102364"/>
<path d="M345.34 54.1163C346.615 54.1163 347.623 53.6412 348.364 52.6912C349.117 51.7295 349.494 50.4087 349.494 48.7287C349.494 47.0486 349.117 45.7104 348.364 44.714C347.611 43.7176 346.603 43.2194 345.34 43.2194C344.089 43.2194 343.093 43.7176 342.351 44.714C341.621 45.6988 341.256 47.0371 341.256 48.7287C341.256 50.4203 341.621 51.7411 342.351 52.6912C343.081 53.6412 344.077 54.1163 345.34 54.1163ZM345.253 65.1001C342.832 65.1001 340.839 64.5671 339.275 63.5012C337.722 62.4468 336.842 61.0797 336.633 59.3996H341.604C341.801 60.0485 342.241 60.5699 342.925 60.9638C343.62 61.3693 344.442 61.5721 345.392 61.5721C346.679 61.5721 347.681 61.2419 348.399 60.5814C349.117 59.9326 349.477 59.0578 349.477 57.9571V54.6898H349.372C348.932 55.6978 348.196 56.5089 347.165 57.1229C346.134 57.7254 344.952 58.0267 343.62 58.0267C341.326 58.0267 339.489 57.1924 338.11 55.524C336.743 53.8556 336.06 51.5789 336.06 48.6939C336.06 45.7394 336.743 43.4105 338.11 41.7074C339.478 40.0042 341.343 39.1526 343.707 39.1526C345.027 39.1526 346.192 39.4712 347.2 40.1084C348.208 40.7457 348.961 41.6089 349.459 42.698H349.546V39.448H354.551V57.8181C354.551 60.0311 353.7 61.798 351.997 63.1188C350.305 64.4397 348.057 65.1001 345.253 65.1001Z" fill="#102364"/>
<path d="M365.066 54.7072C366.19 54.7072 367.14 54.3828 367.916 53.7339C368.704 53.0735 369.098 52.2451 369.098 51.2487V49.8931L365.17 50.1364C364.22 50.2059 363.484 50.4434 362.963 50.8489C362.453 51.2545 362.198 51.7874 362.198 52.4479C362.198 53.143 362.459 53.6934 362.98 54.0989C363.502 54.5044 364.197 54.7072 365.066 54.7072ZM363.398 58.3743C361.602 58.3743 360.113 57.8471 358.931 56.7927C357.749 55.7384 357.158 54.3828 357.158 52.7259C357.158 51.0343 357.784 49.7077 359.035 48.746C360.287 47.7844 362.077 47.234 364.406 47.095L369.098 46.8169V45.583C369.098 44.7256 368.814 44.0536 368.246 43.567C367.69 43.0803 366.931 42.837 365.97 42.837C365.043 42.837 364.284 43.0456 363.693 43.4627C363.114 43.8798 362.76 44.4417 362.633 45.1485H357.993C358.085 43.3178 358.867 41.8464 360.339 40.7341C361.81 39.6102 363.763 39.0483 366.196 39.0483C368.582 39.0483 370.494 39.616 371.931 40.7515C373.368 41.8869 374.086 43.3932 374.086 45.2701V58.0788H369.185V55.2286H369.081C368.571 56.2018 367.795 56.9723 366.752 57.54C365.709 58.0962 364.591 58.3743 363.398 58.3743Z" fill="#102364"/>
<path d="M377.371 58.0788V39.448H382.272V42.7675H382.376C382.886 41.5857 383.627 40.682 384.601 40.0563C385.585 39.4191 386.785 39.1004 388.198 39.1004C390.26 39.1004 391.854 39.7145 392.977 40.9427C394.101 42.1708 394.663 43.8798 394.663 46.0696V58.0788H389.588V47.1297C389.588 45.9016 389.299 44.9573 388.719 44.2969C388.14 43.6365 387.289 43.3063 386.165 43.3063C385.041 43.3063 384.137 43.6828 383.453 44.4359C382.781 45.189 382.445 46.1739 382.445 47.3904V58.0788H377.371Z" fill="#102364"/>
<path d="M420.228 55.9064C418.572 57.6211 416.324 58.4785 413.485 58.4785C410.647 58.4785 408.399 57.6154 406.742 55.889C405.085 54.1626 404.257 51.7816 404.257 48.746C404.257 45.7452 405.091 43.3816 406.759 41.6552C408.439 39.9173 410.681 39.0483 413.485 39.0483C416.301 39.0483 418.543 39.9173 420.211 41.6552C421.879 43.3816 422.714 45.7452 422.714 48.746C422.714 51.7932 421.885 54.18 420.228 55.9064ZM413.485 54.6029C414.737 54.6029 415.727 54.0931 416.457 53.0735C417.187 52.0539 417.552 50.6172 417.552 48.7634C417.552 46.9328 417.187 45.5019 416.457 44.4707C415.727 43.4395 414.737 42.9239 413.485 42.9239C412.234 42.9239 411.237 43.4395 410.496 44.4707C409.766 45.5019 409.401 46.9328 409.401 48.7634C409.401 50.6172 409.766 52.0539 410.496 53.0735C411.226 54.0931 412.222 54.6029 413.485 54.6029Z" fill="#102364"/>
<path d="M436.409 58.3743C435.065 58.3743 433.883 58.0672 432.863 57.4531C431.855 56.8391 431.091 55.9817 430.569 54.881H430.465V58.0788H425.46V33.0002H430.534V42.6806H430.639C431.16 41.5683 431.919 40.7051 432.915 40.0911C433.912 39.4654 435.07 39.1526 436.391 39.1526C438.743 39.1526 440.591 40.0042 441.935 41.7074C443.291 43.4105 443.969 45.7626 443.969 48.7634C443.969 51.7527 443.297 54.1047 441.953 55.8195C440.609 57.5227 438.761 58.3743 436.409 58.3743ZM434.653 43.2194C433.425 43.2194 432.429 43.7292 431.664 44.7488C430.899 45.7684 430.517 47.1066 430.517 48.7634C430.517 50.4434 430.894 51.7874 431.647 52.7954C432.411 53.7919 433.414 54.2901 434.653 54.2901C435.928 54.2901 436.93 53.7977 437.66 52.8128C438.402 51.8164 438.772 50.4666 438.772 48.7634C438.772 47.0718 438.402 45.7278 437.66 44.7314C436.918 43.7234 435.916 43.2194 434.653 43.2194Z" fill="#102364"/>
<path d="M448.54 64.9784C447.427 64.9784 446.79 64.9611 446.628 64.9263V61.0159C446.732 61.0391 447.155 61.0507 447.897 61.0507C448.835 61.0507 449.548 60.8885 450.034 60.5641C450.521 60.2512 450.851 59.7241 451.025 58.9825C451.025 58.9709 451.054 58.8261 451.112 58.548C451.17 58.27 451.193 58.1194 451.181 58.0962L444.699 39.448H450.278L454.24 54.012H454.327L458.289 39.448H463.642L457.229 58.4959C456.43 60.8827 455.375 62.5569 454.066 63.5186C452.769 64.4918 450.926 64.9784 448.54 64.9784Z" fill="#102364"/>
<path d="M473.323 42.8023C472.222 42.8023 471.301 43.1788 470.559 43.9319C469.829 44.685 469.418 45.6467 469.325 46.8169H477.233C477.175 45.6235 476.787 44.6561 476.069 43.9145C475.362 43.173 474.447 42.8023 473.323 42.8023ZM477.303 52.3783H481.96C481.682 54.209 480.767 55.6862 479.214 56.8101C477.673 57.9224 475.756 58.4785 473.462 58.4785C470.6 58.4785 468.352 57.6211 466.718 55.9064C465.096 54.1916 464.285 51.8396 464.285 48.8503C464.285 45.8726 465.096 43.4974 466.718 41.7247C468.341 39.9404 470.525 39.0483 473.271 39.0483C475.97 39.0483 478.119 39.8941 479.718 41.5857C481.317 43.2773 482.117 45.5424 482.117 48.3811V49.9278H469.273V50.2407C469.273 51.5731 469.661 52.6564 470.438 53.4906C471.226 54.3133 472.263 54.7246 473.549 54.7246C474.475 54.7246 475.275 54.516 475.947 54.0989C476.619 53.6702 477.071 53.0967 477.303 52.3783Z" fill="#102364"/>
<path d="M490.007 46.9212L496.333 39.448H502.086L494.977 47.4426L502.433 58.0788H496.594L491.258 50.5014L489.937 51.9265V58.0788H484.863V33.0002H489.937V46.9212H490.007Z" fill="#102364"/>
<path d="M505.249 35.1553H510.324V39.448H513.765V43.2715H510.324V52.1872C510.324 53.5891 511.053 54.2901 512.513 54.2901C512.988 54.2901 513.4 54.2611 513.747 54.2032V57.9398C513.156 58.0788 512.351 58.1483 511.332 58.1483C509.142 58.1483 507.578 57.7544 506.639 56.9665C505.712 56.1786 505.249 54.8752 505.249 53.0561V43.2715H502.624V39.448H505.249V35.1553Z" fill="#102364"/>
<path d="M516.667 58.0788V33.0002H521.742V58.0788H516.667Z" fill="#102364"/>
<path d="M532.361 54.7072C533.485 54.7072 534.435 54.3828 535.211 53.7339C535.999 53.0735 536.393 52.2451 536.393 51.2487V49.8931L532.465 50.1364C531.515 50.2059 530.779 50.4434 530.258 50.8489C529.748 51.2545 529.493 51.7874 529.493 52.4479C529.493 53.143 529.754 53.6934 530.275 54.0989C530.797 54.5044 531.492 54.7072 532.361 54.7072ZM530.692 58.3743C528.896 58.3743 527.408 57.8471 526.226 56.7927C525.044 55.7384 524.453 54.3828 524.453 52.7259C524.453 51.0343 525.079 49.7077 526.33 48.746C527.581 47.7844 529.371 47.234 531.7 47.095L536.393 46.8169V45.583C536.393 44.7256 536.109 44.0536 535.541 43.567C534.985 43.0803 534.226 42.837 533.264 42.837C532.338 42.837 531.579 43.0456 530.988 43.4627C530.408 43.8798 530.055 44.4417 529.928 45.1485H525.287C525.38 43.3178 526.162 41.8464 527.633 40.7341C529.105 39.6102 531.057 39.0483 533.49 39.0483C535.877 39.0483 537.789 39.616 539.226 40.7515C540.662 41.8869 541.381 43.3932 541.381 45.2701V58.0788H536.48V55.2286H536.375C535.866 56.2018 535.089 56.9723 534.046 57.54C533.004 58.0962 531.886 58.3743 530.692 58.3743Z" fill="#102364"/>
<path d="M544.665 58.0788V39.448H549.566V42.8023H549.671C549.995 41.6205 550.54 40.7167 551.304 40.0911C552.069 39.4654 553.002 39.1526 554.102 39.1526C554.635 39.1526 555.116 39.2163 555.545 39.3437V43.8103C555.07 43.6133 554.456 43.5148 553.703 43.5148C552.451 43.5148 551.478 43.8798 550.783 44.6097C550.088 45.3397 549.74 46.3593 549.74 47.6685V58.0788H544.665Z" fill="#102364"/>
<path d="M563.922 58.3743C561.593 58.3743 559.745 57.5111 558.378 55.7847C557.011 54.0584 556.327 51.7063 556.327 48.7287C556.327 45.7741 557.011 43.4395 558.378 41.7247C559.756 40.01 561.616 39.1526 563.957 39.1526C565.277 39.1526 566.436 39.4712 567.432 40.1084C568.44 40.7457 569.176 41.5915 569.64 42.6458H569.744V33.0002H574.819V58.0788H569.813V54.881H569.727C569.263 55.9353 568.516 56.7811 567.485 57.4184C566.453 58.0556 565.266 58.3743 563.922 58.3743ZM565.642 43.2194C564.368 43.2194 563.36 43.7176 562.618 44.714C561.888 45.7104 561.523 47.0602 561.523 48.7634C561.523 50.4782 561.888 51.828 562.618 52.8128C563.36 53.7977 564.368 54.2901 565.642 54.2901C566.905 54.2901 567.907 53.7977 568.649 52.8128C569.402 51.8164 569.779 50.4666 569.779 48.7634C569.779 47.0718 569.402 45.7278 568.649 44.7314C567.907 43.7234 566.905 43.2194 565.642 43.2194Z" fill="#102364"/>
<path d="M585.403 54.7072C586.527 54.7072 587.477 54.3828 588.253 53.7339C589.041 53.0735 589.435 52.2451 589.435 51.2487V49.8931L585.507 50.1364C584.557 50.2059 583.821 50.4434 583.3 50.8489C582.79 51.2545 582.535 51.7874 582.535 52.4479C582.535 53.143 582.796 53.6934 583.317 54.0989C583.839 54.5044 584.534 54.7072 585.403 54.7072ZM583.734 58.3743C581.938 58.3743 580.45 57.8471 579.268 56.7927C578.086 55.7384 577.495 54.3828 577.495 52.7259C577.495 51.0343 578.121 49.7077 579.372 48.746C580.623 47.7844 582.413 47.234 584.742 47.095L589.435 46.8169V45.583C589.435 44.7256 589.151 44.0536 588.583 43.567C588.027 43.0803 587.268 42.837 586.307 42.837C585.38 42.837 584.621 43.0456 584.03 43.4627C583.45 43.8798 583.097 44.4417 582.97 45.1485H578.329C578.422 43.3178 579.204 41.8464 580.676 40.7341C582.147 39.6102 584.099 39.0483 586.532 39.0483C588.919 39.0483 590.831 39.616 592.268 40.7515C593.704 41.8869 594.423 43.3932 594.423 45.2701V58.0788H589.522V55.2286H589.417C588.908 56.2018 588.131 56.9723 587.089 57.54C586.046 58.0962 584.928 58.3743 583.734 58.3743Z" fill="#102364"/>
<path d="M597.707 58.0788V39.448H602.608V42.7675H602.713C603.223 41.5857 603.964 40.682 604.937 40.0563C605.922 39.4191 607.121 39.1004 608.535 39.1004C610.597 39.1004 612.19 39.7145 613.314 40.9427C614.438 42.1708 615 43.8798 615 46.0696V58.0788H609.925V47.1297C609.925 45.9016 609.636 44.9573 609.056 44.2969C608.477 43.6365 607.625 43.3063 606.501 43.3063C605.378 43.3063 604.474 43.6828 603.79 44.4359C603.118 45.189 602.782 46.1739 602.782 47.3904V58.0788H597.707Z" fill="#102364"/>
<path d="M194.956 84.9648C194.956 83.1921 195.668 81.7728 197.094 80.7069C198.519 79.6293 200.425 79.0906 202.811 79.0906C205.14 79.0906 207.011 79.6351 208.425 80.7242C209.838 81.8133 210.563 83.2616 210.597 85.0691H205.922C205.864 84.316 205.552 83.7251 204.984 83.2964C204.428 82.8677 203.68 82.6534 202.742 82.6534C201.861 82.6534 201.155 82.8387 200.622 83.2095C200.1 83.5687 199.839 84.0495 199.839 84.652C199.839 85.5557 200.651 86.1988 202.273 86.5811L205.835 87.3458C207.701 87.7629 209.039 88.3712 209.85 89.1707C210.673 89.9585 211.084 91.0476 211.084 92.438C211.084 94.2686 210.319 95.7401 208.79 96.8524C207.261 97.9647 205.262 98.5208 202.794 98.5208C200.338 98.5208 198.374 97.9762 196.902 96.8871C195.431 95.798 194.626 94.3324 194.487 92.4901H199.44C199.567 93.278 199.926 93.8863 200.517 94.315C201.12 94.7437 201.925 94.958 202.933 94.958C203.895 94.958 204.648 94.7842 205.192 94.4366C205.749 94.0775 206.027 93.5908 206.027 92.9768C206.027 92.5017 205.853 92.1252 205.505 91.8471C205.158 91.5574 204.567 91.3141 203.732 91.1172L200.291 90.3525C196.734 89.5414 194.956 87.7455 194.956 84.9648Z" fill="#102364"/>
<path d="M220.817 94.7495C221.94 94.7495 222.89 94.425 223.667 93.7762C224.455 93.1158 224.849 92.2874 224.849 91.2909V89.9353L220.921 90.1787C219.971 90.2482 219.235 90.4857 218.714 90.8912C218.204 91.2967 217.949 91.8297 217.949 92.4901C217.949 93.1853 218.21 93.7357 218.731 94.1412C219.252 94.5467 219.948 94.7495 220.817 94.7495ZM219.148 98.4165C217.352 98.4165 215.863 97.8893 214.682 96.835C213.5 95.7806 212.909 94.425 212.909 92.7682C212.909 91.0766 213.535 89.75 214.786 88.7883C216.037 87.8266 217.827 87.2763 220.156 87.1373L224.849 86.8592V85.6252C224.849 84.7679 224.565 84.0959 223.997 83.6092C223.441 83.1226 222.682 82.8793 221.72 82.8793C220.793 82.8793 220.034 83.0878 219.444 83.5049C218.864 83.9221 218.511 84.484 218.383 85.1908H213.743C213.836 83.3601 214.618 81.8887 216.089 80.7764C217.561 79.6525 219.513 79.0906 221.946 79.0906C224.333 79.0906 226.245 79.6583 227.681 80.7938C229.118 81.9292 229.836 83.4354 229.836 85.3124V98.1211H224.935V95.2708H224.831C224.321 96.2441 223.545 97.0146 222.502 97.5823C221.46 98.1385 220.341 98.4165 219.148 98.4165Z" fill="#102364"/>
<path d="M233.121 98.1211V79.4903H238.022V82.8619H238.126C238.52 81.7264 239.192 80.8227 240.142 80.1507C241.093 79.4787 242.193 79.1427 243.445 79.1427C244.789 79.1427 245.912 79.4787 246.816 80.1507C247.72 80.8111 248.328 81.7496 248.641 82.9662H248.745C249.162 81.796 249.887 80.8691 250.918 80.1855C251.96 79.4903 253.165 79.1427 254.533 79.1427C256.363 79.1427 257.835 79.7162 258.947 80.8633C260.071 82.0103 260.633 83.5223 260.633 85.3993V98.1211H255.558V86.668C255.558 85.5905 255.297 84.7679 254.776 84.2001C254.255 83.6208 253.501 83.3312 252.517 83.3312C251.555 83.3312 250.779 83.6498 250.188 84.287C249.608 84.9243 249.319 85.7643 249.319 86.807V98.1211H244.435V86.5116C244.435 85.5152 244.169 84.7389 243.636 84.1827C243.103 83.615 242.367 83.3312 241.429 83.3312C240.467 83.3312 239.685 83.6614 239.082 84.3218C238.491 84.9822 238.196 85.8338 238.196 86.8766V98.1211H233.121Z" fill="#102364"/>
<path d="M271.043 94.7495C272.167 94.7495 273.117 94.425 273.893 93.7762C274.681 93.1158 275.075 92.2874 275.075 91.2909V89.9353L271.147 90.1787C270.197 90.2482 269.462 90.4857 268.94 90.8912C268.43 91.2967 268.176 91.8297 268.176 92.4901C268.176 93.1853 268.436 93.7357 268.958 94.1412C269.479 94.5467 270.174 94.7495 271.043 94.7495ZM269.375 98.4165C267.579 98.4165 266.09 97.8893 264.908 96.835C263.726 95.7806 263.135 94.425 263.135 92.7682C263.135 91.0766 263.761 89.75 265.012 88.7883C266.264 87.8266 268.054 87.2763 270.383 87.1373L275.075 86.8592V85.6252C275.075 84.7679 274.791 84.0959 274.224 83.6092C273.667 83.1226 272.909 82.8793 271.947 82.8793C271.02 82.8793 270.261 83.0878 269.67 83.5049C269.091 83.9221 268.737 84.484 268.61 85.1908H263.97C264.062 83.3601 264.844 81.8887 266.316 80.7764C267.787 79.6525 269.74 79.0906 272.173 79.0906C274.56 79.0906 276.471 79.6583 277.908 80.7938C279.345 81.9292 280.063 83.4354 280.063 85.3124V98.1211H275.162V95.2708H275.058C274.548 96.2441 273.772 97.0146 272.729 97.5823C271.686 98.1385 270.568 98.4165 269.375 98.4165Z" fill="#102364"/>
<path d="M283.348 98.1211V79.4903H288.249V82.8445H288.353C288.677 81.6627 289.222 80.759 289.987 80.1333C290.751 79.5077 291.684 79.1948 292.785 79.1948C293.318 79.1948 293.799 79.2586 294.227 79.386V83.8525C293.752 83.6556 293.138 83.5571 292.385 83.5571C291.134 83.5571 290.161 83.9221 289.465 84.652C288.77 85.3819 288.423 86.4015 288.423 87.7108V98.1211H283.348Z" fill="#102364"/>
<path d="M303.056 94.7495C304.18 94.7495 305.13 94.425 305.906 93.7762C306.694 93.1158 307.088 92.2874 307.088 91.2909V89.9353L303.16 90.1787C302.21 90.2482 301.475 90.4857 300.953 90.8912C300.443 91.2967 300.188 91.8297 300.188 92.4901C300.188 93.1853 300.449 93.7357 300.971 94.1412C301.492 94.5467 302.187 94.7495 303.056 94.7495ZM301.388 98.4165C299.592 98.4165 298.103 97.8893 296.921 96.835C295.739 95.7806 295.148 94.425 295.148 92.7682C295.148 91.0766 295.774 89.75 297.025 88.7883C298.277 87.8266 300.067 87.2763 302.396 87.1373L307.088 86.8592V85.6252C307.088 84.7679 306.804 84.0959 306.237 83.6092C305.68 83.1226 304.921 82.8793 303.96 82.8793C303.033 82.8793 302.274 83.0878 301.683 83.5049C301.104 83.9221 300.75 84.484 300.623 85.1908H295.983C296.075 83.3601 296.857 81.8887 298.329 80.7764C299.8 79.6525 301.753 79.0906 304.186 79.0906C306.573 79.0906 308.484 79.6583 309.921 80.7938C311.358 81.9292 312.076 83.4354 312.076 85.3124V98.1211H307.175V95.2708H307.071C306.561 96.2441 305.785 97.0146 304.742 97.5823C303.699 98.1385 302.581 98.4165 301.388 98.4165Z" fill="#102364"/>
<path d="M315.482 98.1211V73.0425H320.557V98.1211H315.482Z" fill="#102364"/>
<path d="M324.068 98.1211V79.4903H329.143V98.1211H324.068ZM328.534 76.6748C328.013 77.1846 327.37 77.4395 326.605 77.4395C325.841 77.4395 325.198 77.1846 324.676 76.6748C324.155 76.165 323.894 75.5452 323.894 74.8152C323.894 74.0737 324.155 73.4538 324.676 72.9556C325.198 72.4458 325.841 72.1909 326.605 72.1909C327.37 72.1909 328.013 72.4458 328.534 72.9556C329.056 73.4538 329.316 74.0737 329.316 74.8152C329.316 75.5452 329.056 76.165 328.534 76.6748Z" fill="#102364"/>
<path d="M340.943 98.1211V83.3138H338.406V79.5772H340.943V78.1695C340.943 76.3156 341.418 74.96 342.368 74.1027C343.33 73.2453 344.9 72.8166 347.078 72.8166C348.075 72.8166 348.938 72.8919 349.668 73.0425V76.3967C349.297 76.3272 348.839 76.2925 348.295 76.2925C346.696 76.2925 345.896 76.9761 345.896 78.3432V79.5772H349.598V83.3138H346.018V98.1211H340.943Z" fill="#102364"/>
<path d="M367.047 95.9486C365.39 97.6634 363.143 98.5208 360.304 98.5208C357.465 98.5208 355.218 97.6576 353.561 95.9313C351.904 94.2049 351.076 91.8239 351.076 88.7883C351.076 85.7875 351.91 83.4238 353.578 81.6975C355.258 79.9595 357.5 79.0906 360.304 79.0906C363.12 79.0906 365.361 79.9595 367.03 81.6975C368.698 83.4238 369.533 85.7875 369.533 88.7883C369.533 91.8355 368.704 94.2223 367.047 95.9486ZM360.304 94.6452C361.555 94.6452 362.546 94.1354 363.276 93.1158C364.006 92.0962 364.371 90.6595 364.371 88.8057C364.371 86.975 364.006 85.5441 363.276 84.513C362.546 83.4818 361.555 82.9662 360.304 82.9662C359.053 82.9662 358.056 83.4818 357.315 84.513C356.585 85.5441 356.22 86.975 356.22 88.8057C356.22 90.6595 356.585 92.0962 357.315 93.1158C358.045 94.1354 359.041 94.6452 360.304 94.6452Z" fill="#102364"/>
<path d="M374.086 105.021C372.974 105.021 372.336 105.003 372.174 104.969V101.058C372.278 101.081 372.701 101.093 373.443 101.093C374.381 101.093 375.094 100.931 375.581 100.606C376.067 100.294 376.397 99.7663 376.571 99.0248C376.571 99.0132 376.6 98.8684 376.658 98.5903C376.716 98.3122 376.739 98.1616 376.728 98.1385L370.245 79.4903H375.824L379.786 94.0543H379.873L383.836 79.4903H389.189L382.776 98.5382C381.976 100.925 380.922 102.599 379.613 103.561C378.315 104.534 376.473 105.021 374.086 105.021Z" fill="#102364"/>
<path d="M397.427 98.4165C395.098 98.4165 393.25 97.5533 391.883 95.827C390.515 94.1006 389.832 91.7486 389.832 88.7709C389.832 85.8164 390.515 83.4818 391.883 81.767C393.261 80.0522 395.121 79.1948 397.461 79.1948C398.782 79.1948 399.941 79.5135 400.937 80.1507C401.945 80.788 402.681 81.6338 403.144 82.6881H403.249V73.0425H408.323V98.1211H403.318V94.9233H403.231C402.768 95.9776 402.021 96.8234 400.989 97.4607C399.958 98.0979 398.771 98.4165 397.427 98.4165ZM399.147 83.2616C397.873 83.2616 396.865 83.7598 396.123 84.7563C395.393 85.7527 395.028 87.1025 395.028 88.8057C395.028 90.5205 395.393 91.8703 396.123 92.8551C396.865 93.8399 397.873 94.3324 399.147 94.3324C400.41 94.3324 401.412 93.8399 402.154 92.8551C402.907 91.8587 403.283 90.5089 403.283 88.8057C403.283 87.1141 402.907 85.7701 402.154 84.7736C401.412 83.7656 400.41 83.2616 399.147 83.2616Z" fill="#102364"/>
<path d="M418.908 94.7495C420.031 94.7495 420.982 94.425 421.758 93.7762C422.546 93.1158 422.94 92.2874 422.94 91.2909V89.9353L419.012 90.1787C418.062 90.2482 417.326 90.4857 416.805 90.8912C416.295 91.2967 416.04 91.8297 416.04 92.4901C416.04 93.1853 416.301 93.7357 416.822 94.1412C417.343 94.5467 418.039 94.7495 418.908 94.7495ZM417.239 98.4165C415.443 98.4165 413.954 97.8893 412.773 96.835C411.591 95.7806 411 94.425 411 92.7682C411 91.0766 411.626 89.75 412.877 88.7883C414.128 87.8266 415.918 87.2763 418.247 87.1373L422.94 86.8592V85.6252C422.94 84.7679 422.656 84.0959 422.088 83.6092C421.532 83.1226 420.773 82.8793 419.811 82.8793C418.884 82.8793 418.125 83.0878 417.535 83.5049C416.955 83.9221 416.602 84.484 416.474 85.1908H411.834C411.927 83.3601 412.709 81.8887 414.18 80.7764C415.652 79.6525 417.604 79.0906 420.037 79.0906C422.424 79.0906 424.336 79.6583 425.772 80.7938C427.209 81.9292 427.928 83.4354 427.928 85.3124V98.1211H423.027V95.2708H422.922C422.412 96.2441 421.636 97.0146 420.593 97.5823C419.551 98.1385 418.433 98.4165 417.239 98.4165Z" fill="#102364"/>
<path d="M431.334 98.1211V73.0425H436.409V98.1211H431.334Z" fill="#102364"/>
<path d="M447.028 94.7495C448.151 94.7495 449.101 94.425 449.878 93.7762C450.666 93.1158 451.06 92.2874 451.06 91.2909V89.9353L447.132 90.1787C446.182 90.2482 445.446 90.4857 444.925 90.8912C444.415 91.2967 444.16 91.8297 444.16 92.4901C444.16 93.1853 444.421 93.7357 444.942 94.1412C445.463 94.5467 446.159 94.7495 447.028 94.7495ZM445.359 98.4165C443.563 98.4165 442.074 97.8893 440.893 96.835C439.711 95.7806 439.12 94.425 439.12 92.7682C439.12 91.0766 439.746 89.75 440.997 88.7883C442.248 87.8266 444.038 87.2763 446.367 87.1373L451.06 86.8592V85.6252C451.06 84.7679 450.776 84.0959 450.208 83.6092C449.652 83.1226 448.893 82.8793 447.931 82.8793C447.004 82.8793 446.245 83.0878 445.655 83.5049C445.075 83.9221 444.722 84.484 444.594 85.1908H439.954C440.047 83.3601 440.829 81.8887 442.3 80.7764C443.772 79.6525 445.724 79.0906 448.157 79.0906C450.544 79.0906 452.456 79.6583 453.892 80.7938C455.329 81.9292 456.047 83.4354 456.047 85.3124V98.1211H451.146V95.2708H451.042C450.532 96.2441 449.756 97.0146 448.713 97.5823C447.671 98.1385 446.553 98.4165 445.359 98.4165Z" fill="#102364"/>
<path d="M459.332 98.1211V79.4903H464.233V82.8098H464.337C464.847 81.628 465.589 80.7242 466.562 80.0986C467.547 79.4613 468.746 79.1427 470.16 79.1427C472.222 79.1427 473.815 79.7568 474.939 80.9849C476.063 82.2131 476.625 83.9221 476.625 86.1119V98.1211H471.55V87.172C471.55 85.9439 471.26 84.9996 470.681 84.3392C470.102 83.6787 469.25 83.3485 468.126 83.3485C467.002 83.3485 466.099 83.7251 465.415 84.4782C464.743 85.2313 464.407 86.2161 464.407 87.4327V98.1211H459.332Z" fill="#102364"/>
<path d="M479.927 98.1211V79.4903H485.002V98.1211H479.927ZM484.393 76.6748C483.872 77.1846 483.229 77.4395 482.464 77.4395C481.7 77.4395 481.057 77.1846 480.535 76.6748C480.014 76.165 479.753 75.5452 479.753 74.8152C479.753 74.0737 480.014 73.4538 480.535 72.9556C481.057 72.4458 481.7 72.1909 482.464 72.1909C483.229 72.1909 483.872 72.4458 484.393 72.9556C484.915 73.4538 485.175 74.0737 485.175 74.8152C485.175 75.5452 484.915 76.165 484.393 76.6748Z" fill="#102364"/>
<path d="M488.078 84.9648C488.078 83.1921 488.79 81.7728 490.216 80.7069C491.641 79.6293 493.547 79.0906 495.933 79.0906C498.262 79.0906 500.133 79.6351 501.547 80.7242C502.96 81.8133 503.685 83.2616 503.719 85.0691H499.044C498.986 84.316 498.673 83.7251 498.106 83.2964C497.55 82.8677 496.802 82.6534 495.864 82.6534C494.983 82.6534 494.276 82.8387 493.744 83.2095C493.222 83.5687 492.961 84.0495 492.961 84.652C492.961 85.5557 493.772 86.1988 495.395 86.5811L498.957 87.3458C500.823 87.7629 502.161 88.3712 502.972 89.1707C503.795 89.9585 504.206 91.0476 504.206 92.438C504.206 94.2686 503.441 95.7401 501.912 96.8524C500.382 97.9647 498.384 98.5208 495.916 98.5208C493.46 98.5208 491.496 97.9762 490.024 96.8871C488.553 95.798 487.748 94.3324 487.609 92.4901H492.562C492.689 93.278 493.048 93.8863 493.639 94.315C494.242 94.7437 495.047 94.958 496.055 94.958C497.017 94.958 497.77 94.7842 498.314 94.4366C498.87 94.0775 499.149 93.5908 499.149 92.9768C499.149 92.5017 498.975 92.1252 498.627 91.8471C498.28 91.5574 497.689 91.3141 496.854 91.1172L493.413 90.3525C489.856 89.5414 488.078 87.7455 488.078 84.9648Z" fill="#102364"/>
<path d="M506.865 98.1211V73.0425H511.853V82.8098H511.957C512.455 81.628 513.203 80.7242 514.199 80.0986C515.207 79.4613 516.412 79.1427 517.814 79.1427C519.865 79.1427 521.458 79.7684 522.593 81.0197C523.74 82.2594 524.314 83.9626 524.314 86.1292V98.1211H519.239V87.2068C519.239 85.9902 518.938 85.0459 518.335 84.3739C517.745 83.6903 516.881 83.3485 515.746 83.3485C514.564 83.3485 513.631 83.7309 512.948 84.4956C512.276 85.2487 511.94 86.2451 511.94 87.4848V98.1211H506.865Z" fill="#102364"/>
<path d="M527.564 98.1211V79.4903H532.465V82.8098H532.569C533.079 81.628 533.821 80.7242 534.794 80.0986C535.779 79.4613 536.978 79.1427 538.391 79.1427C540.454 79.1427 542.047 79.7568 543.171 80.9849C544.295 82.2131 544.856 83.9221 544.856 86.1119V98.1211H539.782V87.172C539.782 85.9439 539.492 84.9996 538.913 84.3392C538.333 83.6787 537.482 83.3485 536.358 83.3485C535.234 83.3485 534.33 83.7251 533.647 84.4782C532.975 85.2313 532.639 86.2161 532.639 87.4327V98.1211H527.564Z" fill="#102364"/>
<path d="M548.159 98.1211V79.4903H553.233V98.1211H548.159ZM552.625 76.6748C552.104 77.1846 551.461 77.4395 550.696 77.4395C549.931 77.4395 549.288 77.1846 548.767 76.6748C548.246 76.165 547.985 75.5452 547.985 74.8152C547.985 74.0737 548.246 73.4538 548.767 72.9556C549.288 72.4458 549.931 72.1909 550.696 72.1909C551.461 72.1909 552.104 72.4458 552.625 72.9556C553.146 73.4538 553.407 74.0737 553.407 74.8152C553.407 75.5452 553.146 76.165 552.625 76.6748Z" fill="#102364"/>
<path d="M196.624 115.24H201.699V119.533H205.14V123.356H201.699V132.272C201.699 133.674 202.429 134.375 203.889 134.375C204.364 134.375 204.775 134.346 205.123 134.288V138.024C204.532 138.163 203.727 138.233 202.707 138.233C200.517 138.233 198.953 137.839 198.015 137.051C197.088 136.263 196.624 134.96 196.624 133.141V123.356H194V119.533H196.624V115.24Z" fill="#102364"/>
<path d="M214.942 134.792C216.066 134.792 217.016 134.467 217.792 133.818C218.58 133.158 218.974 132.33 218.974 131.333V129.978L215.047 130.221C214.096 130.29 213.361 130.528 212.839 130.933C212.33 131.339 212.075 131.872 212.075 132.532C212.075 133.228 212.335 133.778 212.857 134.183C213.378 134.589 214.073 134.792 214.942 134.792ZM213.274 138.459C211.478 138.459 209.989 137.932 208.807 136.877C207.625 135.823 207.035 134.467 207.035 132.81C207.035 131.119 207.66 129.792 208.912 128.831C210.163 127.869 211.953 127.319 214.282 127.18L218.974 126.901V125.668C218.974 124.81 218.69 124.138 218.123 123.651C217.567 123.165 216.808 122.922 215.846 122.922C214.919 122.922 214.16 123.13 213.569 123.547C212.99 123.964 212.637 124.526 212.509 125.233H207.869C207.961 123.402 208.744 121.931 210.215 120.819C211.686 119.695 213.639 119.133 216.072 119.133C218.459 119.133 220.37 119.701 221.807 120.836C223.244 121.971 223.962 123.478 223.962 125.355V138.163H219.061V135.313H218.957C218.447 136.286 217.671 137.057 216.628 137.625C215.585 138.181 214.467 138.459 213.274 138.459Z" fill="#102364"/>
<path d="M226.934 125.007C226.934 123.234 227.647 121.815 229.072 120.749C230.497 119.672 232.403 119.133 234.79 119.133C237.118 119.133 238.99 119.677 240.403 120.767C241.817 121.856 242.541 123.304 242.576 125.111H237.901C237.843 124.358 237.53 123.767 236.962 123.339C236.406 122.91 235.659 122.696 234.72 122.696C233.84 122.696 233.133 122.881 232.6 123.252C232.078 123.611 231.818 124.092 231.818 124.694C231.818 125.598 232.629 126.241 234.251 126.623L237.814 127.388C239.679 127.805 241.017 128.413 241.828 129.213C242.651 130.001 243.062 131.09 243.062 132.48C243.062 134.311 242.298 135.782 240.768 136.895C239.239 138.007 237.24 138.563 234.772 138.563C232.316 138.563 230.352 138.019 228.881 136.929C227.409 135.84 226.604 134.375 226.465 132.532H231.418C231.545 133.32 231.905 133.929 232.495 134.357C233.098 134.786 233.903 135 234.911 135C235.873 135 236.626 134.826 237.171 134.479C237.727 134.12 238.005 133.633 238.005 133.019C238.005 132.544 237.831 132.167 237.483 131.889C237.136 131.6 236.545 131.356 235.711 131.159L232.27 130.395C228.713 129.584 226.934 127.788 226.934 125.007Z" fill="#102364"/>
<path d="M245.721 138.163V113.085H250.709V122.852H250.813C251.312 121.67 252.059 120.767 253.055 120.141C254.063 119.504 255.268 119.185 256.67 119.185C258.721 119.185 260.314 119.811 261.45 121.062C262.597 122.302 263.17 124.005 263.17 126.172V138.163H258.095V127.249C258.095 126.032 257.794 125.088 257.192 124.416C256.601 123.733 255.738 123.391 254.602 123.391C253.42 123.391 252.488 123.773 251.804 124.538C251.132 125.291 250.796 126.287 250.796 127.527V138.163H245.721Z" fill="#102364"/>
<path d="M271.686 127.006L278.012 119.533H283.765L276.657 127.527L284.112 138.163H278.273L272.938 130.586L271.617 132.011V138.163H266.542V113.085H271.617V127.006H271.686Z" fill="#102364"/>
<path d="M285.659 138.163V119.533H290.734V138.163H285.659ZM290.126 116.717C289.604 117.227 288.961 117.482 288.197 117.482C287.432 117.482 286.789 117.227 286.268 116.717C285.746 116.207 285.485 115.587 285.485 114.857C285.485 114.116 285.746 113.496 286.268 112.998C286.789 112.488 287.432 112.233 288.197 112.233C288.961 112.233 289.604 112.488 290.126 112.998C290.647 113.496 290.908 114.116 290.908 114.857C290.908 115.587 290.647 116.207 290.126 116.717Z" fill="#102364"/>
<path d="M294.245 138.163V113.085H299.32V138.163H294.245Z" fill="#102364"/>
<path d="M318.159 122.887C317.058 122.887 316.137 123.263 315.396 124.016C314.666 124.77 314.254 125.731 314.162 126.901H322.069C322.011 125.708 321.623 124.741 320.905 123.999C320.198 123.258 319.283 122.887 318.159 122.887ZM322.139 132.463H326.796C326.518 134.294 325.603 135.771 324.05 136.895C322.51 138.007 320.592 138.563 318.298 138.563C315.436 138.563 313.188 137.706 311.555 135.991C309.933 134.276 309.122 131.924 309.122 128.935C309.122 125.957 309.933 123.582 311.555 121.809C313.177 120.025 315.361 119.133 318.107 119.133C320.806 119.133 322.956 119.979 324.554 121.67C326.153 123.362 326.953 125.627 326.953 128.466V130.012H314.109V130.325C314.109 131.658 314.498 132.741 315.274 133.575C316.062 134.398 317.099 134.809 318.385 134.809C319.312 134.809 320.111 134.601 320.783 134.183C321.455 133.755 321.907 133.181 322.139 132.463Z" fill="#102364"/>
<path d="M330.933 115.24H336.008V119.533H339.449V123.356H336.008V132.272C336.008 133.674 336.737 134.375 338.197 134.375C338.672 134.375 339.084 134.346 339.431 134.288V138.024C338.84 138.163 338.035 138.233 337.016 138.233C334.826 138.233 333.262 137.839 332.323 137.051C331.396 136.263 330.933 134.96 330.933 133.141V123.356H328.308V119.533H330.933V115.24Z" fill="#102364"/>
<path d="M342.316 138.163V119.533H347.391V138.163H342.316ZM346.783 116.717C346.261 117.227 345.618 117.482 344.854 117.482C344.089 117.482 343.446 117.227 342.925 116.717C342.403 116.207 342.143 115.587 342.143 114.857C342.143 114.116 342.403 113.496 342.925 112.998C343.446 112.488 344.089 112.233 344.854 112.233C345.618 112.233 346.261 112.488 346.783 112.998C347.304 113.496 347.565 114.116 347.565 114.857C347.565 115.587 347.304 116.207 346.783 116.717Z" fill="#102364"/>
<path d="M350.467 125.007C350.467 123.234 351.18 121.815 352.605 120.749C354.03 119.672 355.936 119.133 358.323 119.133C360.652 119.133 362.523 119.677 363.936 120.767C365.35 121.856 366.074 123.304 366.109 125.111H361.434C361.376 124.358 361.063 123.767 360.495 123.339C359.939 122.91 359.192 122.696 358.253 122.696C357.373 122.696 356.666 122.881 356.133 123.252C355.612 123.611 355.351 124.092 355.351 124.694C355.351 125.598 356.162 126.241 357.784 126.623L361.347 127.388C363.212 127.805 364.55 128.413 365.361 129.213C366.184 130.001 366.595 131.09 366.595 132.48C366.595 134.311 365.831 135.782 364.301 136.895C362.772 138.007 360.773 138.563 358.305 138.563C355.849 138.563 353.885 138.019 352.414 136.929C350.942 135.84 350.137 134.375 349.998 132.532H354.951C355.079 133.32 355.438 133.929 356.029 134.357C356.631 134.786 357.436 135 358.444 135C359.406 135 360.159 134.826 360.704 134.479C361.26 134.12 361.538 133.633 361.538 133.019C361.538 132.544 361.364 132.167 361.017 131.889C360.669 131.6 360.078 131.356 359.244 131.159L355.803 130.395C352.246 129.584 350.467 127.788 350.467 125.007Z" fill="#102364"/>
<path d="M369.254 138.163V113.085H374.242V122.852H374.347C374.845 121.67 375.592 120.767 376.589 120.141C377.597 119.504 378.802 119.185 380.204 119.185C382.254 119.185 383.847 119.811 384.983 121.062C386.13 122.302 386.703 124.005 386.703 126.172V138.163H381.629V127.249C381.629 126.032 381.327 125.088 380.725 124.416C380.134 123.733 379.271 123.391 378.135 123.391C376.954 123.391 376.021 123.773 375.337 124.538C374.665 125.291 374.329 126.287 374.329 127.527V138.163H369.254Z" fill="#102364"/>
<path d="M397.009 138.163V119.533H401.91V122.904H402.015C402.409 121.769 403.081 120.865 404.031 120.193C404.981 119.521 406.082 119.185 407.333 119.185C408.677 119.185 409.801 119.521 410.704 120.193C411.608 120.853 412.216 121.792 412.529 123.008H412.634C413.051 121.838 413.775 120.911 414.806 120.228C415.849 119.533 417.054 119.185 418.421 119.185C420.252 119.185 421.723 119.759 422.835 120.906C423.959 122.053 424.521 123.565 424.521 125.442V138.163H419.446V126.71C419.446 125.633 419.186 124.81 418.664 124.242C418.143 123.663 417.39 123.373 416.405 123.373C415.443 123.373 414.667 123.692 414.076 124.329C413.497 124.967 413.207 125.807 413.207 126.849V138.163H408.323V126.554C408.323 125.557 408.057 124.781 407.524 124.225C406.991 123.657 406.255 123.373 405.317 123.373C404.355 123.373 403.573 123.704 402.971 124.364C402.38 125.024 402.084 125.876 402.084 126.919V138.163H397.009Z" fill="#102364"/>
<path d="M434.931 134.792C436.055 134.792 437.005 134.467 437.782 133.818C438.57 133.158 438.963 132.33 438.963 131.333V129.978L435.036 130.221C434.086 130.29 433.35 130.528 432.829 130.933C432.319 131.339 432.064 131.872 432.064 132.532C432.064 133.228 432.325 133.778 432.846 134.183C433.367 134.589 434.062 134.792 434.931 134.792ZM433.263 138.459C431.467 138.459 429.978 137.932 428.796 136.877C427.615 135.823 427.024 134.467 427.024 132.81C427.024 131.119 427.649 129.792 428.901 128.831C430.152 127.869 431.942 127.319 434.271 127.18L438.963 126.901V125.668C438.963 124.81 438.68 124.138 438.112 123.651C437.556 123.165 436.797 122.922 435.835 122.922C434.908 122.922 434.149 123.13 433.558 123.547C432.979 123.964 432.626 124.526 432.498 125.233H427.858C427.951 123.402 428.733 121.931 430.204 120.819C431.676 119.695 433.628 119.133 436.061 119.133C438.448 119.133 440.36 119.701 441.796 120.836C443.233 121.971 443.951 123.478 443.951 125.355V138.163H439.05V135.313H438.946C438.436 136.286 437.66 137.057 436.617 137.625C435.574 138.181 434.456 138.459 433.263 138.459Z" fill="#102364"/>
<path d="M447.236 138.163V119.533H452.137V122.887H452.241C452.566 121.705 453.11 120.801 453.875 120.176C454.64 119.55 455.572 119.237 456.673 119.237C457.206 119.237 457.687 119.301 458.116 119.428V123.895C457.641 123.698 457.027 123.599 456.273 123.599C455.022 123.599 454.049 123.964 453.354 124.694C452.658 125.424 452.311 126.444 452.311 127.753V138.163H447.236Z" fill="#102364"/>
<path d="M465.467 127.006L471.793 119.533H477.546L470.438 127.527L477.893 138.163H472.054L466.718 130.586L465.398 132.011V138.163H460.323V113.085H465.398V127.006H465.467Z" fill="#102364"/>
<path d="M486.444 134.792C487.568 134.792 488.518 134.467 489.294 133.818C490.082 133.158 490.476 132.33 490.476 131.333V129.978L486.548 130.221C485.598 130.29 484.863 130.528 484.341 130.933C483.831 131.339 483.577 131.872 483.577 132.532C483.577 133.228 483.837 133.778 484.359 134.183C484.88 134.589 485.575 134.792 486.444 134.792ZM484.776 138.459C482.98 138.459 481.491 137.932 480.309 136.877C479.127 135.823 478.536 134.467 478.536 132.81C478.536 131.119 479.162 129.792 480.413 128.831C481.665 127.869 483.455 127.319 485.784 127.18L490.476 126.901V125.668C490.476 124.81 490.192 124.138 489.625 123.651C489.068 123.165 488.31 122.922 487.348 122.922C486.421 122.922 485.662 123.13 485.071 123.547C484.492 123.964 484.138 124.526 484.011 125.233H479.371C479.463 123.402 480.245 121.931 481.717 120.819C483.188 119.695 485.141 119.133 487.574 119.133C489.961 119.133 491.872 119.701 493.309 120.836C494.746 121.971 495.464 123.478 495.464 125.355V138.163H490.563V135.313H490.459C489.949 136.286 489.173 137.057 488.13 137.625C487.087 138.181 485.969 138.459 484.776 138.459Z" fill="#102364"/>
<path d="M498.297 138.163V135.278L507.578 123.512V123.408H498.436V119.533H513.469V122.748L504.745 134.183V134.27H513.678V138.163H498.297Z" fill="#102364"/>
<path d="M516.737 138.163V119.533H521.811V138.163H516.737ZM521.203 116.717C520.682 117.227 520.039 117.482 519.274 117.482C518.509 117.482 517.866 117.227 517.345 116.717C516.823 116.207 516.563 115.587 516.563 114.857C516.563 114.116 516.823 113.496 517.345 112.998C517.866 112.488 518.509 112.233 519.274 112.233C520.039 112.233 520.682 112.488 521.203 112.998C521.724 113.496 521.985 114.116 521.985 114.857C521.985 115.587 521.724 116.207 521.203 116.717Z" fill="#102364"/>
</g>
<path opacity="0.99" d="M239.83 33L243.618 33L242.315 42.7847L237.501 42.7847L239.83 33Z" fill="#102364"/>
</svg>
