<svg width="331" height="100" viewBox="0 0 331 100" fill="none" xmlns="http://www.w3.org/2000/svg">
<g opacity="0.99">
<path d="M92.1415 44.3972H85.6587V29.7576H92.0299C93.4029 29.7576 94.4918 30.0856 95.2967 30.7417C96.1015 31.3977 96.504 32.2871 96.504 33.4099C96.504 34.208 96.2402 34.908 95.7126 35.5099C95.1918 36.1119 94.5392 36.4704 93.7546 36.5853V36.6665C94.7556 36.7409 95.5807 37.1095 96.23 37.7723C96.8793 38.4352 97.204 39.2468 97.204 40.2072C97.204 41.499 96.7508 42.5203 95.8445 43.2711C94.9382 44.0218 93.7039 44.3972 92.1415 44.3972ZM88.7225 32.0403V35.8447H90.9241C91.7425 35.8447 92.3748 35.6756 92.8212 35.3375C93.2676 34.9925 93.4908 34.5089 93.4908 33.8867C93.4908 33.2983 93.2947 32.8451 92.9024 32.5272C92.5101 32.2026 91.9555 32.0403 91.2386 32.0403H88.7225ZM88.7225 42.1145H91.3603C92.2463 42.1145 92.9193 41.9319 93.3792 41.5667C93.8459 41.1947 94.0792 40.6603 94.0792 39.9637C94.0792 39.2806 93.8391 38.7598 93.3589 38.4013C92.8855 38.0429 92.1956 37.8636 91.2893 37.8636H88.7225V42.1145Z" fill="white"/>
<path d="M107.623 43.129C106.656 44.13 105.344 44.6305 103.687 44.6305C102.03 44.6305 100.718 44.1266 99.7505 43.1189C98.7833 42.1111 98.2997 40.7212 98.2997 38.9492C98.2997 37.1974 98.7867 35.8177 99.7606 34.8099C100.741 33.7954 102.05 33.2881 103.687 33.2881C105.33 33.2881 106.639 33.7954 107.613 34.8099C108.587 35.8177 109.074 37.1974 109.074 38.9492C109.074 40.728 108.59 42.1213 107.623 43.129ZM103.687 42.3681C104.417 42.3681 104.996 42.0705 105.422 41.4753C105.848 40.8802 106.061 40.0415 106.061 38.9593C106.061 37.8907 105.848 37.0554 105.422 36.4534C104.996 35.8515 104.417 35.5505 103.687 35.5505C102.956 35.5505 102.375 35.8515 101.942 36.4534C101.516 37.0554 101.303 37.8907 101.303 38.9593C101.303 40.0415 101.516 40.8802 101.942 41.4753C102.368 42.0705 102.95 42.3681 103.687 42.3681Z" fill="white"/>
<path d="M114.258 36.7172C114.258 35.6824 114.674 34.8539 115.506 34.2316C116.338 33.6026 117.451 33.2881 118.844 33.2881C120.203 33.2881 121.296 33.606 122.121 34.2418C122.946 34.8775 123.369 35.723 123.389 36.7781H120.66C120.626 36.3385 120.443 35.9935 120.112 35.7433C119.787 35.493 119.351 35.3679 118.803 35.3679C118.289 35.3679 117.877 35.4761 117.566 35.6925C117.261 35.9022 117.109 36.1829 117.109 36.5346C117.109 37.0622 117.582 37.4375 118.529 37.6607L120.609 38.1071C121.698 38.3506 122.479 38.7057 122.953 39.1724C123.433 39.6323 123.673 40.2681 123.673 41.0797C123.673 42.1483 123.227 43.0073 122.334 43.6566C121.441 44.3059 120.274 44.6305 118.834 44.6305C117.4 44.6305 116.253 44.3126 115.394 43.6769C114.535 43.0411 114.065 42.1855 113.984 41.1101H116.876C116.95 41.57 117.16 41.9251 117.505 42.1754C117.856 42.4256 118.326 42.5507 118.915 42.5507C119.476 42.5507 119.916 42.4493 120.234 42.2464C120.558 42.0367 120.721 41.7527 120.721 41.3942C120.721 41.1169 120.619 40.8971 120.416 40.7347C120.213 40.5657 119.869 40.4236 119.382 40.3086L117.373 39.8623C115.296 39.3888 114.258 38.3405 114.258 36.7172Z" fill="white"/>
<path d="M125.225 44.3972V29.7576H128.137V35.4592H128.198C128.489 34.7693 128.925 34.2418 129.507 33.8765C130.095 33.5046 130.798 33.3186 131.617 33.3186C132.814 33.3186 133.744 33.6838 134.407 34.4142C135.076 35.1379 135.411 36.1322 135.411 37.397V44.3972H132.449V38.026C132.449 37.3158 132.273 36.7646 131.921 36.3723C131.576 35.9732 131.072 35.7737 130.409 35.7737C129.72 35.7737 129.175 35.9969 128.776 36.4433C128.384 36.8829 128.188 37.4646 128.188 38.1883V44.3972H125.225Z" fill="white"/>
<path d="M142.219 31.0156H145.181V33.5215H147.19V35.7534H145.181V40.9579C145.181 41.7763 145.607 42.1855 146.459 42.1855C146.737 42.1855 146.977 42.1686 147.18 42.1348V44.316C146.835 44.3972 146.365 44.4378 145.769 44.4378C144.491 44.4378 143.578 44.2078 143.03 43.7479C142.489 43.288 142.219 42.5271 142.219 41.4652V35.7534H140.687V33.5215H142.219V31.0156Z" fill="white"/>
<path d="M158.857 33.5215V44.3972H155.996V42.4391H155.935C155.367 43.8798 154.281 44.6001 152.678 44.6001C151.488 44.6001 150.538 44.2382 149.827 43.5145C149.117 42.7841 148.762 41.7899 148.762 40.5318V33.5215H151.725V39.913C151.725 40.6367 151.897 41.1879 152.242 41.5667C152.594 41.9454 153.098 42.1348 153.754 42.1348C154.41 42.1348 154.931 41.9184 155.316 41.4855C155.702 41.0526 155.894 40.4743 155.894 39.7507V33.5215H158.857Z" fill="white"/>
<path d="M160.784 44.3972V33.5215H163.645V35.4795H163.706C163.896 34.7896 164.213 34.2621 164.66 33.8968C165.106 33.5316 165.651 33.349 166.293 33.349C166.604 33.349 166.885 33.3862 167.135 33.4606V36.0679C166.858 35.9529 166.5 35.8955 166.06 35.8955C165.329 35.8955 164.761 36.1085 164.355 36.5346C163.95 36.9607 163.747 37.5559 163.747 38.3202V44.3972H160.784Z" fill="white"/>
<path d="M173.009 42.0841C173.753 42.0841 174.342 41.8068 174.775 41.2522C175.214 40.6908 175.434 39.9197 175.434 38.939C175.434 37.9583 175.214 37.1771 174.775 36.5955C174.335 36.0138 173.747 35.723 173.009 35.723C172.279 35.723 171.697 36.0138 171.264 36.5955C170.838 37.1704 170.625 37.9516 170.625 38.939C170.625 39.9265 170.838 40.6975 171.264 41.2522C171.691 41.8068 172.272 42.0841 173.009 42.0841ZM172.959 48.4959C171.545 48.4959 170.382 48.1848 169.469 47.5625C168.562 46.947 168.048 46.1489 167.927 45.1682H170.828C170.943 45.547 171.2 45.8513 171.599 46.0813C172.005 46.318 172.485 46.4364 173.04 46.4364C173.791 46.4364 174.376 46.2436 174.795 45.8581C175.214 45.4793 175.424 44.9687 175.424 44.3262V42.4189H175.363C175.106 43.0073 174.677 43.4807 174.075 43.8392C173.473 44.1909 172.783 44.3667 172.005 44.3667C170.666 44.3667 169.594 43.8798 168.789 42.9058C167.991 41.9319 167.592 40.6029 167.592 38.9187C167.592 37.194 167.991 35.8346 168.789 34.8403C169.587 33.8461 170.676 33.349 172.056 33.349C172.827 33.349 173.507 33.535 174.095 33.907C174.683 34.279 175.123 34.7829 175.414 35.4186H175.465V33.5215H178.386V44.245C178.386 45.5368 177.889 46.5683 176.895 47.3393C175.908 48.1104 174.595 48.4959 172.959 48.4959Z" fill="white"/>
<path d="M184.524 42.429C185.18 42.429 185.735 42.2396 186.188 41.8609C186.648 41.4753 186.878 40.9918 186.878 40.4101V39.6188L184.585 39.7608C184.031 39.8014 183.601 39.94 183.297 40.1768C182.999 40.4135 182.85 40.7246 182.85 41.1101C182.85 41.5159 183.002 41.8372 183.307 42.0739C183.611 42.3106 184.017 42.429 184.524 42.429ZM183.55 44.5697C182.502 44.5697 181.633 44.2619 180.943 43.6464C180.253 43.031 179.908 42.2396 179.908 41.2724C179.908 40.285 180.273 39.5105 181.004 38.9492C181.734 38.3878 182.779 38.0665 184.139 37.9854L186.878 37.8231V37.1027C186.878 36.6022 186.712 36.21 186.381 35.9259C186.056 35.6418 185.613 35.4998 185.052 35.4998C184.511 35.4998 184.068 35.6215 183.723 35.865C183.385 36.1085 183.178 36.4365 183.104 36.8491H180.395C180.449 35.7805 180.906 34.9215 181.765 34.2722C182.624 33.6162 183.763 33.2881 185.184 33.2881C186.577 33.2881 187.693 33.6195 188.532 34.2824C189.37 34.9452 189.79 35.8244 189.79 36.9201V44.3972H186.929V42.7334H186.868C186.57 43.3015 186.117 43.7513 185.508 44.0827C184.9 44.4073 184.247 44.5697 183.55 44.5697Z" fill="white"/>
<path d="M191.707 44.3972V33.5215H194.568V35.4592H194.629C194.927 34.7693 195.359 34.2418 195.928 33.8765C196.502 33.5046 197.202 33.3186 198.028 33.3186C199.232 33.3186 200.162 33.677 200.818 34.394C201.474 35.1109 201.802 36.1085 201.802 37.3868V44.3972H198.839V38.0057C198.839 37.2887 198.67 36.7375 198.332 36.352C197.994 35.9665 197.497 35.7737 196.841 35.7737C196.185 35.7737 195.657 35.9935 195.258 36.4332C194.866 36.8728 194.67 37.4477 194.67 38.1578V44.3972H191.707Z" fill="white"/>
<path d="M216.725 43.129C215.758 44.13 214.446 44.6305 212.789 44.6305C211.132 44.6305 209.82 44.1266 208.853 43.1189C207.885 42.1111 207.402 40.7212 207.402 38.9492C207.402 37.1974 207.889 35.8177 208.863 34.8099C209.843 33.7954 211.152 33.2881 212.789 33.2881C214.433 33.2881 215.741 33.7954 216.715 34.8099C217.689 35.8177 218.176 37.1974 218.176 38.9492C218.176 40.728 217.693 42.1213 216.725 43.129ZM212.789 42.3681C213.519 42.3681 214.098 42.0705 214.524 41.4753C214.95 40.8802 215.163 40.0415 215.163 38.9593C215.163 37.8907 214.95 37.0554 214.524 36.4534C214.098 35.8515 213.519 35.5505 212.789 35.5505C212.059 35.5505 211.477 35.8515 211.044 36.4534C210.618 37.0554 210.405 37.8907 210.405 38.9593C210.405 40.0415 210.618 40.8802 211.044 41.4753C211.47 42.0705 212.052 42.3681 212.789 42.3681Z" fill="white"/>
<path d="M226.171 44.5697C225.386 44.5697 224.696 44.3904 224.101 44.032C223.513 43.6735 223.066 43.173 222.762 42.5305H222.701V44.3972H219.779V29.7576H222.741V35.4085H222.802C223.107 34.7592 223.55 34.2553 224.131 33.8968C224.713 33.5316 225.389 33.349 226.16 33.349C227.533 33.349 228.612 33.8461 229.397 34.8403C230.188 35.8346 230.584 37.2076 230.584 38.9593C230.584 40.7043 230.191 42.0773 229.407 43.0783C228.622 44.0725 227.544 44.5697 226.171 44.5697ZM225.146 35.723C224.429 35.723 223.847 36.0206 223.401 36.6158C222.955 37.211 222.731 37.9921 222.731 38.9593C222.731 39.94 222.951 40.7246 223.391 41.313C223.837 41.8947 224.422 42.1855 225.146 42.1855C225.89 42.1855 226.475 41.8981 226.901 41.3232C227.334 40.7415 227.55 39.9536 227.55 38.9593C227.55 37.9719 227.334 37.1873 226.901 36.6056C226.468 36.0172 225.883 35.723 225.146 35.723Z" fill="white"/>
<path d="M233.252 48.4249C232.603 48.4249 232.231 48.4147 232.136 48.3944V46.1117C232.197 46.1253 232.444 46.132 232.877 46.132C233.424 46.132 233.84 46.0373 234.124 45.848C234.409 45.6653 234.601 45.3576 234.703 44.9247C234.703 44.918 234.72 44.8334 234.753 44.6711C234.787 44.5088 234.801 44.4209 234.794 44.4073L231.01 33.5215H234.267L236.58 42.0232H236.63L238.943 33.5215H242.068L238.325 44.6407C237.858 46.034 237.242 47.0113 236.478 47.5727C235.721 48.1408 234.645 48.4249 233.252 48.4249Z" fill="white"/>
<path d="M247.719 35.4795C247.077 35.4795 246.539 35.6993 246.106 36.1389C245.68 36.5786 245.44 37.1399 245.386 37.8231H250.002C249.968 37.1264 249.741 36.5617 249.322 36.1288C248.91 35.6959 248.375 35.4795 247.719 35.4795ZM250.042 41.0695H252.761C252.599 42.1382 252.065 43.0005 251.158 43.6566C250.259 44.3059 249.139 44.6305 247.8 44.6305C246.13 44.6305 244.818 44.13 243.864 43.129C242.917 42.128 242.444 40.755 242.444 39.01C242.444 37.2718 242.917 35.8853 243.864 34.8505C244.811 33.8089 246.086 33.2881 247.689 33.2881C249.265 33.2881 250.519 33.7819 251.453 34.7693C252.386 35.7568 252.853 37.0791 252.853 38.7361V39.6391H245.355V39.8217C245.355 40.5995 245.582 41.2319 246.035 41.7188C246.495 42.199 247.1 42.4391 247.851 42.4391C248.392 42.4391 248.859 42.3174 249.251 42.0739C249.643 41.8237 249.907 41.4889 250.042 41.0695Z" fill="white"/>
<path d="M257.459 37.8839L261.151 33.5215H264.51L260.36 38.1883L264.712 44.3972H261.304L258.189 39.9738L257.418 40.8058V44.3972H254.456V29.7576H257.418V37.8839H257.459Z" fill="white"/>
<path d="M266.356 31.0156H269.318V33.5215H271.327V35.7534H269.318V40.9579C269.318 41.7763 269.744 42.1855 270.597 42.1855C270.874 42.1855 271.114 42.1686 271.317 42.1348V44.316C270.972 44.3972 270.502 44.4378 269.907 44.4378C268.629 44.4378 267.715 44.2078 267.168 43.7479C266.627 43.288 266.356 42.5271 266.356 41.4652V35.7534H264.824V33.5215H266.356V31.0156Z" fill="white"/>
<path d="M273.021 44.3972V29.7576H275.984V44.3972H273.021Z" fill="white"/>
<path d="M282.183 42.429C282.839 42.429 283.393 42.2396 283.846 41.8609C284.306 41.4753 284.536 40.9918 284.536 40.4101V39.6188L282.243 39.7608C281.689 39.8014 281.259 39.94 280.955 40.1768C280.657 40.4135 280.509 40.7246 280.509 41.1101C280.509 41.5159 280.661 41.8372 280.965 42.0739C281.27 42.3106 281.675 42.429 282.183 42.429ZM281.209 44.5697C280.16 44.5697 279.291 44.2619 278.601 43.6464C277.911 43.031 277.566 42.2396 277.566 41.2724C277.566 40.285 277.932 39.5105 278.662 38.9492C279.393 38.3878 280.438 38.0665 281.797 37.9854L284.536 37.8231V37.1027C284.536 36.6022 284.371 36.21 284.039 35.9259C283.715 35.6418 283.272 35.4998 282.71 35.4998C282.169 35.4998 281.726 35.6215 281.381 35.865C281.043 36.1085 280.837 36.4365 280.762 36.8491H278.053C278.108 35.7805 278.564 34.9215 279.423 34.2722C280.282 33.6162 281.422 33.2881 282.842 33.2881C284.235 33.2881 285.351 33.6195 286.19 34.2824C287.029 34.9452 287.448 35.8244 287.448 36.9201V44.3972H284.587V42.7334H284.526C284.229 43.3015 283.775 43.7513 283.167 44.0827C282.558 44.4073 281.905 44.5697 281.209 44.5697Z" fill="white"/>
<path d="M289.365 44.3972V33.5215H292.226V35.4795H292.287C292.477 34.7896 292.795 34.2621 293.241 33.8968C293.687 33.5316 294.232 33.349 294.874 33.349C295.185 33.349 295.466 33.3862 295.716 33.4606V36.0679C295.439 35.9529 295.081 35.8955 294.641 35.8955C293.911 35.8955 293.342 36.1085 292.937 36.5346C292.531 36.9607 292.328 37.5559 292.328 38.3202V44.3972H289.365Z" fill="white"/>
<path d="M300.606 44.5697C299.247 44.5697 298.168 44.0658 297.37 43.058C296.572 42.0502 296.173 40.6773 296.173 38.939C296.173 37.2143 296.572 35.8515 297.37 34.8505C298.175 33.8495 299.26 33.349 300.627 33.349C301.398 33.349 302.074 33.535 302.656 33.907C303.244 34.279 303.674 34.7727 303.944 35.3882H304.005V29.7576H306.967V44.3972H304.046V42.5305H303.995C303.724 43.1459 303.288 43.6397 302.686 44.0117C302.084 44.3837 301.391 44.5697 300.606 44.5697ZM301.611 35.723C300.867 35.723 300.278 36.0138 299.845 36.5955C299.419 37.1771 299.206 37.9651 299.206 38.9593C299.206 39.9603 299.419 40.7483 299.845 41.3232C300.278 41.8981 300.867 42.1855 301.611 42.1855C302.348 42.1855 302.933 41.8981 303.366 41.3232C303.806 40.7415 304.025 39.9536 304.025 38.9593C304.025 37.9719 303.806 37.1873 303.366 36.6056C302.933 36.0172 302.348 35.723 301.611 35.723Z" fill="white"/>
<path d="M313.146 42.429C313.802 42.429 314.357 42.2396 314.81 41.8609C315.27 41.4753 315.5 40.9918 315.5 40.4101V39.6188L313.207 39.7608C312.652 39.8014 312.223 39.94 311.918 40.1768C311.621 40.4135 311.472 40.7246 311.472 41.1101C311.472 41.5159 311.624 41.8372 311.928 42.0739C312.233 42.3106 312.639 42.429 313.146 42.429ZM312.172 44.5697C311.124 44.5697 310.255 44.2619 309.565 43.6464C308.875 43.031 308.53 42.2396 308.53 41.2724C308.53 40.285 308.895 39.5105 309.626 38.9492C310.356 38.3878 311.401 38.0665 312.76 37.9854L315.5 37.8231V37.1027C315.5 36.6022 315.334 36.21 315.003 35.9259C314.678 35.6418 314.235 35.4998 313.673 35.4998C313.132 35.4998 312.689 35.6215 312.344 35.865C312.006 36.1085 311.8 36.4365 311.726 36.8491H309.017C309.071 35.7805 309.527 34.9215 310.386 34.2722C311.245 33.6162 312.385 33.2881 313.805 33.2881C315.199 33.2881 316.315 33.6195 317.153 34.2824C317.992 34.9452 318.411 35.8244 318.411 36.9201V44.3972H315.55V42.7334H315.489C315.192 43.3015 314.739 43.7513 314.13 44.0827C313.521 44.4073 312.869 44.5697 312.172 44.5697Z" fill="white"/>
<path d="M320.329 44.3972V33.5215H323.19V35.4592H323.251C323.548 34.7693 323.981 34.2418 324.549 33.8765C325.124 33.5046 325.824 33.3186 326.649 33.3186C327.853 33.3186 328.783 33.677 329.439 34.394C330.095 35.1109 330.423 36.1085 330.423 37.3868V44.3972H327.461V38.0057C327.461 37.2887 327.292 36.7375 326.954 36.352C326.615 35.9665 326.118 35.7737 325.462 35.7737C324.806 35.7737 324.279 35.9935 323.88 36.4332C323.487 36.8728 323.291 37.4477 323.291 38.1578V44.3972H320.329Z" fill="white"/>
<path d="M85.2224 60.0919C85.2224 59.0571 85.6384 58.2286 86.4703 57.6063C87.3022 56.9773 88.4148 56.6628 89.8081 56.6628C91.1676 56.6628 92.2599 56.9807 93.085 57.6165C93.9102 58.2522 94.3329 59.0977 94.3532 60.1528H91.6241C91.5903 59.7132 91.4077 59.3682 91.0763 59.118C90.7516 58.8677 90.3154 58.7426 89.7675 58.7426C89.2535 58.7426 88.8409 58.8508 88.5298 59.0672C88.2254 59.2769 88.0733 59.5576 88.0733 59.9093C88.0733 60.4368 88.5467 60.8122 89.4936 61.0354L91.5734 61.4818C92.6623 61.7253 93.4435 62.0804 93.9169 62.5471C94.3971 63.007 94.6372 63.6428 94.6372 64.4544C94.6372 65.523 94.1908 66.382 93.2981 67.0313C92.4053 67.6806 91.2386 68.0052 89.7979 68.0052C88.3641 68.0052 87.2177 67.6873 86.3587 67.0516C85.4997 66.4158 85.0297 65.5602 84.9485 64.4848H87.8399C87.9143 64.9447 88.124 65.2998 88.4689 65.5501C88.8206 65.8003 89.2907 65.9254 89.8791 65.9254C90.4405 65.9254 90.8801 65.824 91.198 65.6211C91.5226 65.4114 91.685 65.1273 91.685 64.7689C91.685 64.4916 91.5835 64.2718 91.3806 64.1094C91.1777 63.9403 90.8328 63.7983 90.3458 63.6833L88.337 63.2369C86.2606 62.7635 85.2224 61.7152 85.2224 60.0919Z" fill="white"/>
<path d="M100.319 65.8037C100.975 65.8037 101.529 65.6143 101.982 65.2356C102.442 64.85 102.672 64.3664 102.672 63.7848V62.9935L100.379 63.1355C99.8248 63.1761 99.3954 63.3147 99.091 63.5514C98.7934 63.7882 98.6446 64.0993 98.6446 64.4848C98.6446 64.8906 98.7968 65.2119 99.1012 65.4486C99.4055 65.6853 99.8113 65.8037 100.319 65.8037ZM99.3446 67.9443C98.2963 67.9443 97.4272 67.6366 96.7373 67.0211C96.0474 66.4056 95.7025 65.6143 95.7025 64.6471C95.7025 63.6597 96.0677 62.8852 96.7982 62.3239C97.5286 61.7625 98.5736 61.4412 99.9331 61.3601L102.672 61.1977V60.4774C102.672 59.9769 102.507 59.5846 102.175 59.3006C101.851 59.0165 101.408 58.8745 100.846 58.8745C100.305 58.8745 99.862 58.9962 99.5171 59.2397C99.1789 59.4832 98.9726 59.8112 98.8982 60.2238H96.1895C96.2436 59.1552 96.7001 58.2962 97.5591 57.6469C98.418 56.9908 99.5577 56.6628 100.978 56.6628C102.371 56.6628 103.487 56.9942 104.326 57.657C105.165 58.3199 105.584 59.1991 105.584 60.2948V67.7719H102.723V66.1081H102.662C102.365 66.6762 101.911 67.126 101.303 67.4574C100.694 67.782 100.041 67.9443 99.3446 67.9443Z" fill="white"/>
<path d="M107.501 67.7719V56.8962H110.362V58.8643H110.423C110.653 58.2015 111.046 57.674 111.6 57.2817C112.155 56.8894 112.797 56.6932 113.528 56.6932C114.312 56.6932 114.968 56.8894 115.496 57.2817C116.023 57.6672 116.379 58.215 116.561 58.9252H116.622C116.866 58.2421 117.288 57.701 117.89 57.302C118.499 56.8962 119.202 56.6932 120 56.6932C121.069 56.6932 121.928 57.028 122.577 57.6976C123.233 58.3672 123.561 59.2499 123.561 60.3455V67.7719H120.599V61.0861C120.599 60.4571 120.447 59.9769 120.142 59.6455C119.838 59.3073 119.398 59.1383 118.824 59.1383C118.262 59.1383 117.809 59.3243 117.464 59.6962C117.126 60.0682 116.957 60.5586 116.957 61.1673V67.7719H114.106V60.9948C114.106 60.4132 113.95 59.96 113.639 59.6354C113.328 59.304 112.899 59.1383 112.351 59.1383C111.789 59.1383 111.333 59.331 110.981 59.7165C110.636 60.1021 110.464 60.5992 110.464 61.2079V67.7719H107.501Z" fill="white"/>
<path d="M129.638 65.8037C130.294 65.8037 130.849 65.6143 131.302 65.2356C131.762 64.85 131.992 64.3664 131.992 63.7848V62.9935L129.699 63.1355C129.145 63.1761 128.715 63.3147 128.411 63.5514C128.113 63.7882 127.964 64.0993 127.964 64.4848C127.964 64.8906 128.117 65.2119 128.421 65.4486C128.725 65.6853 129.131 65.8037 129.638 65.8037ZM128.664 67.9443C127.616 67.9443 126.747 67.6366 126.057 67.0211C125.367 66.4056 125.022 65.6143 125.022 64.6471C125.022 63.6597 125.388 62.8852 126.118 62.3239C126.848 61.7625 127.893 61.4412 129.253 61.3601L131.992 61.1977V60.4774C131.992 59.9769 131.826 59.5846 131.495 59.3006C131.17 59.0165 130.727 58.8745 130.166 58.8745C129.625 58.8745 129.182 58.9962 128.837 59.2397C128.499 59.4832 128.292 59.8112 128.218 60.2238H125.509C125.563 59.1552 126.02 58.2962 126.879 57.6469C127.738 56.9908 128.878 56.6628 130.298 56.6628C131.691 56.6628 132.807 56.9942 133.646 57.657C134.484 58.3199 134.904 59.1991 134.904 60.2948V67.7719H132.043V66.1081H131.982C131.684 66.6762 131.231 67.126 130.622 67.4574C130.014 67.782 129.361 67.9443 128.664 67.9443Z" fill="white"/>
<path d="M136.821 67.7719V56.8962H139.682V58.8542H139.743C139.932 58.1643 140.25 57.6368 140.697 57.2715C141.143 56.9063 141.688 56.7237 142.33 56.7237C142.641 56.7237 142.922 56.7609 143.172 56.8353V59.4426C142.895 59.3276 142.536 59.2701 142.097 59.2701C141.366 59.2701 140.798 59.4832 140.392 59.9093C139.987 60.3354 139.784 60.9306 139.784 61.6949V67.7719H136.821Z" fill="white"/>
<path d="M148.326 65.8037C148.982 65.8037 149.537 65.6143 149.99 65.2356C150.45 64.85 150.68 64.3664 150.68 63.7848V62.9935L148.387 63.1355C147.832 63.1761 147.403 63.3147 147.098 63.5514C146.801 63.7882 146.652 64.0993 146.652 64.4848C146.652 64.8906 146.804 65.2119 147.109 65.4486C147.413 65.6853 147.819 65.8037 148.326 65.8037ZM147.352 67.9443C146.304 67.9443 145.435 67.6366 144.745 67.0211C144.055 66.4056 143.71 65.6143 143.71 64.6471C143.71 63.6597 144.075 62.8852 144.806 62.3239C145.536 61.7625 146.581 61.4412 147.94 61.3601L150.68 61.1977V60.4774C150.68 59.9769 150.514 59.5846 150.183 59.3006C149.858 59.0165 149.415 58.8745 148.854 58.8745C148.312 58.8745 147.869 58.9962 147.524 59.2397C147.186 59.4832 146.98 59.8112 146.906 60.2238H144.197C144.251 59.1552 144.707 58.2962 145.566 57.6469C146.425 56.9908 147.565 56.6628 148.985 56.6628C150.379 56.6628 151.495 56.9942 152.333 57.657C153.172 58.3199 153.591 59.1991 153.591 60.2948V67.7719H150.73V66.1081H150.67C150.372 66.6762 149.919 67.126 149.31 67.4574C148.701 67.782 148.049 67.9443 147.352 67.9443Z" fill="white"/>
<path d="M155.58 67.7719V53.1323H158.542V67.7719H155.58Z" fill="white"/>
<path d="M160.592 67.7719V56.8962H163.554V67.7719H160.592ZM163.199 55.2526C162.895 55.5502 162.519 55.699 162.073 55.699C161.626 55.699 161.251 55.5502 160.947 55.2526C160.642 54.955 160.49 54.5932 160.49 54.1671C160.49 53.7342 160.642 53.3724 160.947 53.0815C161.251 52.7839 161.626 52.6351 162.073 52.6351C162.519 52.6351 162.895 52.7839 163.199 53.0815C163.503 53.3724 163.655 53.7342 163.655 54.1671C163.655 54.5932 163.503 54.955 163.199 55.2526Z" fill="white"/>
<path d="M170.443 67.7719V59.1281H168.961V56.9469H170.443V56.1251C170.443 55.0429 170.72 54.2516 171.275 53.7511C171.836 53.2506 172.752 53.0004 174.024 53.0004C174.606 53.0004 175.109 53.0443 175.536 53.1323V55.0903C175.319 55.0497 175.052 55.0294 174.734 55.0294C173.801 55.0294 173.334 55.4285 173.334 56.2266V56.9469H175.495V59.1281H173.405V67.7719H170.443Z" fill="white"/>
<path d="M185.681 66.5037C184.714 67.5047 183.402 68.0052 181.744 68.0052C180.087 68.0052 178.775 67.5013 177.808 66.4936C176.841 65.4858 176.357 64.0959 176.357 62.3239C176.357 60.5721 176.844 59.1924 177.818 58.1846C178.799 57.1701 180.108 56.6628 181.744 56.6628C183.388 56.6628 184.697 57.1701 185.671 58.1846C186.645 59.1924 187.132 60.5721 187.132 62.3239C187.132 64.1027 186.648 65.496 185.681 66.5037ZM181.744 65.7428C182.475 65.7428 183.053 65.4452 183.479 64.85C183.905 64.2549 184.118 63.4162 184.118 62.334C184.118 61.2654 183.905 60.4301 183.479 59.8281C183.053 59.2262 182.475 58.9252 181.744 58.9252C181.014 58.9252 180.432 59.2262 179.999 59.8281C179.573 60.4301 179.36 61.2654 179.36 62.334C179.36 63.4162 179.573 64.2549 179.999 64.85C180.426 65.4452 181.007 65.7428 181.744 65.7428Z" fill="white"/>
<path d="M189.79 71.7995C189.14 71.7995 188.768 71.7894 188.674 71.7691V69.4864C188.735 69.5 188.981 69.5067 189.414 69.5067C189.962 69.5067 190.378 69.412 190.662 69.2226C190.946 69.04 191.139 68.7323 191.24 68.2994C191.24 68.2927 191.257 68.2081 191.291 68.0458C191.325 67.8835 191.339 67.7955 191.332 67.782L187.548 56.8962H190.804L193.117 65.3979H193.168L195.481 56.8962H198.606L194.862 68.0154C194.396 69.4086 193.78 70.386 193.016 70.9473C192.258 71.5155 191.183 71.7995 189.79 71.7995Z" fill="white"/>
<path d="M203.415 67.9443C202.055 67.9443 200.977 67.4405 200.178 66.4327C199.38 65.4249 198.981 64.0519 198.981 62.3137C198.981 60.589 199.38 59.2262 200.178 58.2252C200.983 57.2242 202.069 56.7237 203.435 56.7237C204.206 56.7237 204.882 56.9097 205.464 57.2817C206.053 57.6537 206.482 58.1474 206.753 58.7629H206.813V53.1323H209.776V67.7719H206.854V65.9051H206.803C206.533 66.5206 206.096 67.0144 205.495 67.3864C204.893 67.7583 204.199 67.9443 203.415 67.9443ZM204.419 59.0977C203.675 59.0977 203.087 59.3885 202.654 59.9702C202.228 60.5518 202.015 61.3398 202.015 62.334C202.015 63.335 202.228 64.123 202.654 64.6979C203.087 65.2728 203.675 65.5602 204.419 65.5602C205.156 65.5602 205.741 65.2728 206.174 64.6979C206.614 64.1162 206.834 63.3282 206.834 62.334C206.834 61.3465 206.614 60.562 206.174 59.9803C205.741 59.3919 205.156 59.0977 204.419 59.0977Z" fill="white"/>
<path d="M215.954 65.8037C216.61 65.8037 217.165 65.6143 217.618 65.2356C218.078 64.85 218.308 64.3664 218.308 63.7848V62.9935L216.015 63.1355C215.461 63.1761 215.031 63.3147 214.727 63.5514C214.429 63.7882 214.28 64.0993 214.28 64.4848C214.28 64.8906 214.433 65.2119 214.737 65.4486C215.041 65.6853 215.447 65.8037 215.954 65.8037ZM214.98 67.9443C213.932 67.9443 213.063 67.6366 212.373 67.0211C211.683 66.4056 211.338 65.6143 211.338 64.6471C211.338 63.6597 211.703 62.8852 212.434 62.3239C213.164 61.7625 214.209 61.4412 215.569 61.3601L218.308 61.1977V60.4774C218.308 59.9769 218.142 59.5846 217.811 59.3006C217.486 59.0165 217.043 58.8745 216.482 58.8745C215.941 58.8745 215.498 58.9962 215.153 59.2397C214.815 59.4832 214.608 59.8112 214.534 60.2238H211.825C211.879 59.1552 212.336 58.2962 213.195 57.6469C214.054 56.9908 215.193 56.6628 216.614 56.6628C218.007 56.6628 219.123 56.9942 219.962 57.657C220.8 58.3199 221.22 59.1991 221.22 60.2948V67.7719H218.359V66.1081H218.298C218 66.6762 217.547 67.126 216.938 67.4574C216.33 67.782 215.677 67.9443 214.98 67.9443Z" fill="white"/>
<path d="M223.208 67.7719V53.1323H226.171V67.7719H223.208Z" fill="white"/>
<path d="M232.369 65.8037C233.025 65.8037 233.58 65.6143 234.033 65.2356C234.493 64.85 234.723 64.3664 234.723 63.7848V62.9935L232.43 63.1355C231.876 63.1761 231.446 63.3147 231.142 63.5514C230.844 63.7882 230.695 64.0993 230.695 64.4848C230.695 64.8906 230.848 65.2119 231.152 65.4486C231.456 65.6853 231.862 65.8037 232.369 65.8037ZM231.395 67.9443C230.347 67.9443 229.478 67.6366 228.788 67.0211C228.098 66.4056 227.753 65.6143 227.753 64.6471C227.753 63.6597 228.118 62.8852 228.849 62.3239C229.579 61.7625 230.624 61.4412 231.984 61.3601L234.723 61.1977V60.4774C234.723 59.9769 234.557 59.5846 234.226 59.3006C233.901 59.0165 233.458 58.8745 232.897 58.8745C232.356 58.8745 231.913 58.9962 231.568 59.2397C231.23 59.4832 231.023 59.8112 230.949 60.2238H228.24C228.294 59.1552 228.751 58.2962 229.61 57.6469C230.469 56.9908 231.608 56.6628 233.029 56.6628C234.422 56.6628 235.538 56.9942 236.377 57.657C237.215 58.3199 237.635 59.1991 237.635 60.2948V67.7719H234.774V66.1081H234.713C234.415 66.6762 233.962 67.126 233.353 67.4574C232.745 67.782 232.092 67.9443 231.395 67.9443Z" fill="white"/>
<path d="M239.552 67.7719V56.8962H242.413V58.8339H242.474C242.772 58.144 243.204 57.6165 243.773 57.2512C244.348 56.8792 245.048 56.6932 245.873 56.6932C247.077 56.6932 248.007 57.0517 248.663 57.7686C249.319 58.4856 249.647 59.4832 249.647 60.7615V67.7719H246.684V61.3804C246.684 60.6634 246.515 60.1122 246.177 59.7267C245.839 59.3412 245.342 59.1484 244.686 59.1484C244.03 59.1484 243.502 59.3682 243.103 59.8078C242.711 60.2475 242.515 60.8224 242.515 61.5325V67.7719H239.552Z" fill="white"/>
<path d="M251.574 67.7719V56.8962H254.537V67.7719H251.574ZM254.182 55.2526C253.877 55.5502 253.502 55.699 253.056 55.699C252.609 55.699 252.234 55.5502 251.929 55.2526C251.625 54.955 251.473 54.5932 251.473 54.1671C251.473 53.7342 251.625 53.3724 251.929 53.0815C252.234 52.7839 252.609 52.6351 253.056 52.6351C253.502 52.6351 253.877 52.7839 254.182 53.0815C254.486 53.3724 254.638 53.7342 254.638 54.1671C254.638 54.5932 254.486 54.955 254.182 55.2526Z" fill="white"/>
<path d="M256.332 60.0919C256.332 59.0571 256.748 58.2286 257.58 57.6063C258.412 56.9773 259.525 56.6628 260.918 56.6628C262.278 56.6628 263.37 56.9807 264.195 57.6165C265.02 58.2522 265.443 59.0977 265.463 60.1528H262.734C262.7 59.7132 262.518 59.3682 262.186 59.118C261.862 58.8677 261.425 58.7426 260.878 58.7426C260.364 58.7426 259.951 58.8508 259.64 59.0672C259.335 59.2769 259.183 59.5576 259.183 59.9093C259.183 60.4368 259.657 60.8122 260.604 61.0354L262.683 61.4818C263.772 61.7253 264.553 62.0804 265.027 62.5471C265.507 63.007 265.747 63.6428 265.747 64.4544C265.747 65.523 265.301 66.382 264.408 67.0313C263.515 67.6806 262.349 68.0052 260.908 68.0052C259.474 68.0052 258.328 67.6873 257.469 67.0516C256.61 66.4158 256.14 65.5602 256.059 64.4848H258.95C259.024 64.9447 259.234 65.2998 259.579 65.5501C259.931 65.8003 260.401 65.9254 260.989 65.9254C261.55 65.9254 261.99 65.824 262.308 65.6211C262.633 65.4114 262.795 65.1273 262.795 64.7689C262.795 64.4916 262.694 64.2718 262.491 64.1094C262.288 63.9403 261.943 63.7983 261.456 63.6833L259.447 63.2369C257.371 62.7635 256.332 61.7152 256.332 60.0919Z" fill="white"/>
<path d="M267.299 67.7719V53.1323H270.211V58.8339H270.272C270.563 58.144 270.999 57.6165 271.581 57.2512C272.169 56.8792 272.873 56.6932 273.691 56.6932C274.888 56.6932 275.818 57.0585 276.481 57.7889C277.151 58.5126 277.485 59.5069 277.485 60.7716V67.7719H274.523V61.4006C274.523 60.6905 274.347 60.1393 273.995 59.747C273.65 59.3479 273.147 59.1484 272.484 59.1484C271.794 59.1484 271.249 59.3716 270.85 59.818C270.458 60.2576 270.262 60.8393 270.262 61.563V67.7719H267.299Z" fill="white"/>
<path d="M279.382 67.7719V56.8962H282.243V58.8339H282.304C282.602 58.144 283.035 57.6165 283.603 57.2512C284.178 56.8792 284.878 56.6932 285.703 56.6932C286.907 56.6932 287.837 57.0517 288.493 57.7686C289.149 58.4856 289.477 59.4832 289.477 60.7615V67.7719H286.515V61.3804C286.515 60.6634 286.346 60.1122 286.007 59.7267C285.669 59.3412 285.172 59.1484 284.516 59.1484C283.86 59.1484 283.332 59.3682 282.933 59.8078C282.541 60.2475 282.345 60.8224 282.345 61.5325V67.7719H279.382Z" fill="white"/>
<path d="M291.405 67.7719V56.8962H294.367V67.7719H291.405ZM294.012 55.2526C293.708 55.5502 293.332 55.699 292.886 55.699C292.439 55.699 292.064 55.5502 291.76 55.2526C291.455 54.955 291.303 54.5932 291.303 54.1671C291.303 53.7342 291.455 53.3724 291.76 53.0815C292.064 52.7839 292.439 52.6351 292.886 52.6351C293.332 52.6351 293.708 52.7839 294.012 53.0815C294.316 53.3724 294.468 53.7342 294.468 54.1671C294.468 54.5932 294.316 54.955 294.012 55.2526Z" fill="white"/>
<path d="M86.1964 77.765H89.1588V80.2708H91.1676V82.5028H89.1588V87.7073C89.1588 88.5257 89.5849 88.9349 90.4371 88.9349C90.7144 88.9349 90.9545 88.918 91.1574 88.8842V91.0654C90.8125 91.1466 90.3424 91.1871 89.7472 91.1871C88.4689 91.1871 87.5558 90.9572 87.008 90.4973C86.4669 90.0374 86.1964 89.2765 86.1964 88.2146V82.5028H84.6644V80.2708H86.1964V77.765Z" fill="white"/>
<path d="M96.8895 89.1784C97.5455 89.1784 98.1002 88.989 98.5533 88.6102C99.0132 88.2247 99.2432 87.7411 99.2432 87.1595V86.3681L96.9504 86.5102C96.3958 86.5508 95.9663 86.6894 95.6619 86.9261C95.3643 87.1629 95.2155 87.474 95.2155 87.8595C95.2155 88.2653 95.3677 88.5866 95.6721 88.8233C95.9764 89.06 96.3822 89.1784 96.8895 89.1784ZM95.9155 91.319C94.8672 91.319 93.9981 91.0113 93.3082 90.3958C92.6183 89.7803 92.2734 88.989 92.2734 88.0218C92.2734 87.0343 92.6386 86.2599 93.3691 85.6986C94.0995 85.1372 95.1445 84.8159 96.504 84.7348L99.2432 84.5724V83.8521C99.2432 83.3516 99.0775 82.9593 98.7461 82.6753C98.4214 82.3912 97.9784 82.2492 97.417 82.2492C96.876 82.2492 96.4329 82.3709 96.088 82.6144C95.7498 82.8579 95.5435 83.1859 95.4691 83.5985H92.7604C92.8145 82.5299 93.271 81.6709 94.13 81.0216C94.9889 80.3655 96.1286 80.0375 97.5489 80.0375C98.9422 80.0375 100.058 80.3689 100.897 81.0317C101.736 81.6946 102.155 82.5738 102.155 83.6695V91.1466H99.2939V89.4827H99.233C98.9354 90.0509 98.4823 90.5006 97.8736 90.8321C97.2649 91.1567 96.6122 91.319 95.9155 91.319Z" fill="white"/>
<path d="M103.89 83.4666C103.89 82.4318 104.306 81.6032 105.138 80.981C105.969 80.352 107.082 80.0375 108.475 80.0375C109.835 80.0375 110.927 80.3554 111.752 80.9912C112.577 81.6269 113 82.4724 113.02 83.5275H110.291C110.258 83.0878 110.075 82.7429 109.744 82.4927C109.419 82.2424 108.983 82.1173 108.435 82.1173C107.921 82.1173 107.508 82.2255 107.197 82.4419C106.893 82.6516 106.741 82.9323 106.741 83.284C106.741 83.8115 107.214 84.1869 108.161 84.4101L110.241 84.8565C111.33 85.1 112.111 85.4551 112.584 85.9218C113.064 86.3817 113.305 87.0174 113.305 87.8291C113.305 88.8977 112.858 89.7567 111.965 90.406C111.073 91.0553 109.906 91.3799 108.465 91.3799C107.031 91.3799 105.885 91.062 105.026 90.4263C104.167 89.7905 103.697 88.9349 103.616 87.8595H106.507C106.582 88.3194 106.791 88.6745 107.136 88.9248C107.488 89.175 107.958 89.3001 108.546 89.3001C109.108 89.3001 109.547 89.1987 109.865 88.9958C110.19 88.7861 110.352 88.502 110.352 88.1436C110.352 87.8663 110.251 87.6464 110.048 87.4841C109.845 87.315 109.5 87.173 109.013 87.058L107.004 86.6116C104.928 86.1382 103.89 85.0898 103.89 83.4666Z" fill="white"/>
<path d="M114.857 91.1466V76.5069H117.768V82.2086H117.829C118.12 81.5187 118.556 80.9912 119.138 80.6259C119.726 80.2539 120.43 80.0679 121.248 80.0679C122.445 80.0679 123.375 80.4332 124.038 81.1636C124.708 81.8873 125.043 82.8816 125.043 84.1463V91.1466H122.08V84.7753C122.08 84.0652 121.904 83.5139 121.553 83.1217C121.208 82.7226 120.704 82.5231 120.041 82.5231C119.351 82.5231 118.807 82.7463 118.408 83.1927C118.015 83.6323 117.819 84.214 117.819 84.9377V91.1466H114.857Z" fill="white"/>
<path d="M130.014 84.6333L133.707 80.2708H137.065L132.915 84.9377L137.268 91.1466H133.859L130.744 86.7232L129.973 87.5551V91.1466H127.011V76.5069H129.973V84.6333H130.014Z" fill="white"/>
<path d="M138.171 91.1466V80.2708H141.133V91.1466H138.171ZM140.778 78.6273C140.474 78.9249 140.098 79.0737 139.652 79.0737C139.205 79.0737 138.83 78.9249 138.526 78.6273C138.221 78.3297 138.069 77.9679 138.069 77.5418C138.069 77.1089 138.221 76.7471 138.526 76.4562C138.83 76.1586 139.205 76.0098 139.652 76.0098C140.098 76.0098 140.474 76.1586 140.778 76.4562C141.082 76.7471 141.234 77.1089 141.234 77.5418C141.234 77.9679 141.082 78.3297 140.778 78.6273Z" fill="white"/>
<path d="M143.182 91.1466V76.5069H146.145V91.1466H143.182Z" fill="white"/>
<path d="M157.142 82.2289C156.5 82.2289 155.962 82.4487 155.529 82.8883C155.103 83.3279 154.863 83.8893 154.809 84.5724H159.425C159.391 83.8758 159.164 83.311 158.745 82.8782C158.333 82.4453 157.798 82.2289 157.142 82.2289ZM159.465 87.8189H162.184C162.022 88.8876 161.488 89.7499 160.581 90.406C159.682 91.0553 158.563 91.3799 157.223 91.3799C155.553 91.3799 154.241 90.8794 153.287 89.8784C152.34 88.8774 151.867 87.5044 151.867 85.7594C151.867 84.0212 152.34 82.6347 153.287 81.5999C154.234 80.5583 155.509 80.0375 157.112 80.0375C158.688 80.0375 159.942 80.5312 160.876 81.5187C161.809 82.5062 162.276 83.8284 162.276 85.4855V86.3884H154.778V86.571C154.778 87.3489 155.005 87.9812 155.458 88.4682C155.918 88.9484 156.523 89.1885 157.274 89.1885C157.815 89.1885 158.282 89.0668 158.674 88.8233C159.066 88.573 159.33 88.2383 159.465 87.8189Z" fill="white"/>
<path d="M164.599 77.765H167.561V80.2708H169.57V82.5028H167.561V87.7073C167.561 88.5257 167.987 88.9349 168.84 88.9349C169.117 88.9349 169.357 88.918 169.56 88.8842V91.0654C169.215 91.1466 168.745 91.1871 168.15 91.1871C166.872 91.1871 165.958 90.9572 165.411 90.4973C164.87 90.0374 164.599 89.2765 164.599 88.2146V82.5028H163.067V80.2708H164.599V77.765Z" fill="white"/>
<path d="M171.244 91.1466V80.2708H174.207V91.1466H171.244ZM173.851 78.6273C173.547 78.9249 173.172 79.0737 172.725 79.0737C172.279 79.0737 171.904 78.9249 171.599 78.6273C171.295 78.3297 171.143 77.9679 171.143 77.5418C171.143 77.1089 171.295 76.7471 171.599 76.4562C171.904 76.1586 172.279 76.0098 172.725 76.0098C173.172 76.0098 173.547 76.1586 173.851 76.4562C174.156 76.7471 174.308 77.1089 174.308 77.5418C174.308 77.9679 174.156 78.3297 173.851 78.6273Z" fill="white"/>
<path d="M176.002 83.4666C176.002 82.4318 176.418 81.6032 177.25 80.981C178.082 80.352 179.195 80.0375 180.588 80.0375C181.947 80.0375 183.04 80.3554 183.865 80.9912C184.69 81.6269 185.113 82.4724 185.133 83.5275H182.404C182.37 83.0878 182.187 82.7429 181.856 82.4927C181.531 82.2424 181.095 82.1173 180.547 82.1173C180.033 82.1173 179.621 82.2255 179.31 82.4419C179.005 82.6516 178.853 82.9323 178.853 83.284C178.853 83.8115 179.327 84.1869 180.273 84.4101L182.353 84.8565C183.442 85.1 184.223 85.4551 184.697 85.9218C185.177 86.3817 185.417 87.0174 185.417 87.8291C185.417 88.8977 184.971 89.7567 184.078 90.406C183.185 91.0553 182.018 91.3799 180.578 91.3799C179.144 91.3799 177.997 91.062 177.139 90.4263C176.28 89.7905 175.809 88.9349 175.728 87.8595H178.62C178.694 88.3194 178.904 88.6745 179.249 88.9248C179.6 89.175 180.071 89.3001 180.659 89.3001C181.22 89.3001 181.66 89.1987 181.978 88.9958C182.302 88.7861 182.465 88.502 182.465 88.1436C182.465 87.8663 182.363 87.6464 182.16 87.4841C181.958 87.315 181.613 87.173 181.126 87.058L179.117 86.6116C177.04 86.1382 176.002 85.0898 176.002 83.4666Z" fill="white"/>
<path d="M186.969 91.1466V76.5069H189.881V82.2086H189.942C190.233 81.5187 190.669 80.9912 191.251 80.6259C191.839 80.2539 192.542 80.0679 193.361 80.0679C194.558 80.0679 195.488 80.4332 196.151 81.1636C196.82 81.8873 197.155 82.8816 197.155 84.1463V91.1466H194.193V84.7753C194.193 84.0652 194.017 83.5139 193.665 83.1217C193.32 82.7226 192.816 82.5231 192.154 82.5231C191.464 82.5231 190.919 82.7463 190.52 83.1927C190.128 83.6323 189.932 84.214 189.932 84.9377V91.1466H186.969Z" fill="white"/>
<path d="M203.171 91.1466V80.2708H206.032V82.239H206.093C206.323 81.5762 206.715 81.0486 207.27 80.6564C207.825 80.2641 208.467 80.0679 209.198 80.0679C209.982 80.0679 210.638 80.2641 211.166 80.6564C211.693 81.0419 212.048 81.5897 212.231 82.2999H212.292C212.535 81.6168 212.958 81.0757 213.56 80.6766C214.169 80.2708 214.872 80.0679 215.67 80.0679C216.739 80.0679 217.598 80.4027 218.247 81.0723C218.903 81.7419 219.231 82.6245 219.231 83.7202V91.1466H216.269V84.4608C216.269 83.8318 216.117 83.3516 215.812 83.0202C215.508 82.682 215.068 82.5129 214.493 82.5129C213.932 82.5129 213.479 82.6989 213.134 83.0709C212.796 83.4429 212.627 83.9333 212.627 84.542V91.1466H209.776V84.3695C209.776 83.7879 209.62 83.3347 209.309 83.0101C208.998 82.6787 208.569 82.5129 208.021 82.5129C207.459 82.5129 207.003 82.7057 206.651 83.0912C206.306 83.4767 206.134 83.9739 206.134 84.5826V91.1466H203.171Z" fill="white"/>
<path d="M225.308 89.1784C225.964 89.1784 226.519 88.989 226.972 88.6102C227.432 88.2247 227.662 87.7411 227.662 87.1595V86.3681L225.369 86.5102C224.814 86.5508 224.385 86.6894 224.081 86.9261C223.783 87.1629 223.634 87.474 223.634 87.8595C223.634 88.2653 223.786 88.5866 224.091 88.8233C224.395 89.06 224.801 89.1784 225.308 89.1784ZM224.334 91.319C223.286 91.319 222.417 91.0113 221.727 90.3958C221.037 89.7803 220.692 88.989 220.692 88.0218C220.692 87.0343 221.057 86.2599 221.788 85.6986C222.518 85.1372 223.563 84.8159 224.923 84.7348L227.662 84.5724V83.8521C227.662 83.3516 227.496 82.9593 227.165 82.6753C226.84 82.3912 226.397 82.2492 225.836 82.2492C225.295 82.2492 224.852 82.3709 224.507 82.6144C224.169 82.8579 223.962 83.1859 223.888 83.5985H221.179C221.233 82.5299 221.69 81.6709 222.549 81.0216C223.408 80.3655 224.547 80.0375 225.968 80.0375C227.361 80.0375 228.477 80.3689 229.316 81.0317C230.154 81.6946 230.574 82.5738 230.574 83.6695V91.1466H227.713V89.4827H227.652C227.354 90.0509 226.901 90.5006 226.292 90.8321C225.684 91.1567 225.031 91.319 224.334 91.319Z" fill="white"/>
<path d="M232.491 91.1466V80.2708H235.352V82.2289H235.413C235.602 81.539 235.92 81.0114 236.367 80.6462C236.813 80.281 237.357 80.0984 238 80.0984C238.311 80.0984 238.592 80.1356 238.842 80.21V82.8173C238.565 82.7023 238.206 82.6448 237.767 82.6448C237.036 82.6448 236.468 82.8579 236.062 83.284C235.656 83.7101 235.453 84.3053 235.453 85.0696V91.1466H232.491Z" fill="white"/>
<path d="M243.133 84.6333L246.826 80.2708H250.184L246.035 84.9377L250.387 91.1466H246.979L243.864 86.7232L243.093 87.5551V91.1466H240.13V76.5069H243.093V84.6333H243.133Z" fill="white"/>
<path d="M255.379 89.1784C256.035 89.1784 256.589 88.989 257.043 88.6102C257.503 88.2247 257.732 87.7411 257.732 87.1595V86.3681L255.44 86.5102C254.885 86.5508 254.456 86.6894 254.151 86.9261C253.854 87.1629 253.705 87.474 253.705 87.8595C253.705 88.2653 253.857 88.5866 254.161 88.8233C254.466 89.06 254.872 89.1784 255.379 89.1784ZM254.405 91.319C253.357 91.319 252.487 91.0113 251.798 90.3958C251.108 89.7803 250.763 88.989 250.763 88.0218C250.763 87.0343 251.128 86.2599 251.858 85.6986C252.589 85.1372 253.634 84.8159 254.993 84.7348L257.732 84.5724V83.8521C257.732 83.3516 257.567 82.9593 257.235 82.6753C256.911 82.3912 256.468 82.2492 255.906 82.2492C255.365 82.2492 254.922 82.3709 254.577 82.6144C254.239 82.8579 254.033 83.1859 253.958 83.5985H251.25C251.304 82.5299 251.76 81.6709 252.619 81.0216C253.478 80.3655 254.618 80.0375 256.038 80.0375C257.432 80.0375 258.547 80.3689 259.386 81.0317C260.225 81.6946 260.644 82.5738 260.644 83.6695V91.1466H257.783V89.4827H257.722C257.425 90.0509 256.972 90.5006 256.363 90.8321C255.754 91.1567 255.101 91.319 254.405 91.319Z" fill="white"/>
<path d="M262.298 91.1466V89.4625L267.715 82.5941V82.5332H262.379V80.2708H271.155V82.1477L266.062 88.8233V88.874H271.276V91.1466H262.298Z" fill="white"/>
<path d="M273.062 91.1466V80.2708H276.024V91.1466H273.062ZM275.669 78.6273C275.365 78.9249 274.99 79.0737 274.543 79.0737C274.097 79.0737 273.721 78.9249 273.417 78.6273C273.113 78.3297 272.961 77.9679 272.961 77.5418C272.961 77.1089 273.113 76.7471 273.417 76.4562C273.721 76.1586 274.097 76.0098 274.543 76.0098C274.99 76.0098 275.365 76.1586 275.669 76.4562C275.974 76.7471 276.126 77.1089 276.126 77.5418C276.126 77.9679 275.974 78.3297 275.669 78.6273Z" fill="white"/>
</g>
<path opacity="0.99" d="M111.417 29.7576L113.629 29.7576L112.868 35.4694L110.058 35.4694L111.417 29.7576Z" fill="white"/>
<g opacity="0.7">
<path d="M7.75191 60.5687L33.7332 41.2927V16.7571L7.75191 36.0331V60.5687Z" fill="white"/>
<path d="M60.7334 60.5687L34.7521 41.2927V16.7571L60.7334 36.0331V60.5687Z" fill="#485FAD"/>
<path d="M17.332 27.9677L33.9175 15.6626V5.14984e-05L17.332 12.3051V27.9677Z" fill="white"/>
<path d="M51.1533 27.9677L34.5679 15.6626V5.14984e-05L51.1533 12.3051V27.9677Z" fill="#485FAD"/>
<path d="M0 99.3779L33.5841 74.4612V42.7459L0 67.6625V99.3779Z" fill="white"/>
<path d="M68.4853 99.3779L34.9012 74.4612V42.7459L68.4853 67.6625V99.3779Z" fill="#485FAD"/>
</g>
</svg>
