<svg width="265" height="66" viewBox="0 0 265 66" fill="none" xmlns="http://www.w3.org/2000/svg">
<g opacity="0.99">
<path d="M73.1246 20.3818H67.9043V8.59326H73.0347C74.1403 8.59326 75.0172 8.85741 75.6653 9.3857C76.3134 9.91399 76.6374 10.6302 76.6374 11.5343C76.6374 12.1769 76.425 12.7406 76.0002 13.2253C75.5808 13.71 75.0553 13.9987 74.4235 14.0913V14.1566C75.2296 14.2166 75.894 14.5134 76.4168 15.0471C76.9397 15.5808 77.2011 16.2344 77.2011 17.0078C77.2011 18.048 76.8362 18.8704 76.1064 19.4749C75.3766 20.0795 74.3827 20.3818 73.1246 20.3818ZM70.3715 10.4314V13.4949H72.1442C72.8032 13.4949 73.3125 13.3588 73.6719 13.0864C74.0314 12.8087 74.2111 12.4193 74.2111 11.9182C74.2111 11.4444 74.0532 11.0795 73.7373 10.8235C73.4214 10.5621 72.9748 10.4314 72.3975 10.4314H70.3715ZM70.3715 18.5436H72.4955C73.209 18.5436 73.7509 18.3966 74.1212 18.1025C74.497 17.8029 74.6849 17.3727 74.6849 16.8117C74.6849 16.2616 74.4916 15.8423 74.1049 15.5536C73.7237 15.265 73.1681 15.1206 72.4383 15.1206H70.3715V18.5436Z" fill="white"/>
<path d="M85.5911 19.3606C84.8123 20.1666 83.7557 20.5696 82.4214 20.5696C81.087 20.5696 80.0305 20.1639 79.2516 19.3524C78.4728 18.5409 78.0834 17.4217 78.0834 15.9948C78.0834 14.5842 78.4755 13.4731 79.2598 12.6616C80.0495 11.8447 81.1034 11.4362 82.4214 11.4362C83.7448 11.4362 84.7987 11.8447 85.583 12.6616C86.3672 13.4731 86.7593 14.5842 86.7593 15.9948C86.7593 17.4271 86.3699 18.5491 85.5911 19.3606ZM82.4214 18.7479C83.0096 18.7479 83.4752 18.5082 83.8184 18.029C84.1615 17.5497 84.333 16.8743 84.333 16.0029C84.333 15.1424 84.1615 14.4698 83.8184 13.9851C83.4752 13.5004 83.0096 13.258 82.4214 13.258C81.8332 13.258 81.3648 13.5004 81.0162 13.9851C80.6731 14.4698 80.5016 15.1424 80.5016 16.0029C80.5016 16.8743 80.6731 17.5497 81.0162 18.029C81.3594 18.5082 81.8277 18.7479 82.4214 18.7479Z" fill="white"/>
<path d="M90.9339 14.1975C90.9339 13.3642 91.2689 12.697 91.9388 12.196C92.6087 11.6895 93.5046 11.4362 94.6265 11.4362C95.7212 11.4362 96.6008 11.6922 97.2652 12.2042C97.9297 12.7161 98.2701 13.3969 98.2864 14.2465H96.0888C96.0616 13.8925 95.9146 13.6147 95.6477 13.4132C95.3863 13.2117 95.035 13.111 94.5938 13.111C94.1799 13.111 93.8477 13.1981 93.5972 13.3724C93.3521 13.5412 93.2295 13.7672 93.2295 14.0504C93.2295 14.4753 93.6108 14.7775 94.3733 14.9572L96.048 15.3167C96.9248 15.5128 97.5539 15.7987 97.9351 16.1745C98.3218 16.5448 98.5152 17.0568 98.5152 17.7103C98.5152 18.5709 98.1557 19.2625 97.4368 19.7854C96.7179 20.3082 95.7784 20.5696 94.6183 20.5696C93.4637 20.5696 92.5406 20.3137 91.8489 19.8017C91.1572 19.2898 90.7787 18.6008 90.7134 17.7349H93.0416C93.1015 18.1052 93.2704 18.3911 93.5481 18.5926C93.8314 18.7942 94.2099 18.8949 94.6837 18.8949C95.1357 18.8949 95.4897 18.8132 95.7457 18.6498C96.0071 18.481 96.1379 18.2523 96.1379 17.9636C96.1379 17.7403 96.0562 17.5633 95.8928 17.4326C95.7294 17.2964 95.4516 17.1821 95.0595 17.0895L93.4419 16.73C91.7699 16.3488 90.9339 15.5046 90.9339 14.1975Z" fill="white"/>
<path d="M99.7651 20.3818V8.59326H102.11V13.1845H102.159C102.393 12.629 102.744 12.2042 103.213 11.9101C103.686 11.6105 104.253 11.4607 104.912 11.4607C105.876 11.4607 106.625 11.7548 107.158 12.343C107.698 12.9258 107.967 13.7264 107.967 14.7448V20.3818H105.582V15.2513C105.582 14.6795 105.44 14.2356 105.157 13.9197C104.879 13.5984 104.473 13.4377 103.94 13.4377C103.384 13.4377 102.946 13.6175 102.624 13.9769C102.308 14.3309 102.151 14.7993 102.151 15.3821V20.3818H99.7651Z" fill="white"/>
<path d="M113.449 9.60627H115.834V11.6241H117.452V13.4214H115.834V17.6123C115.834 18.2713 116.177 18.6008 116.864 18.6008C117.087 18.6008 117.28 18.5872 117.444 18.56V20.3164C117.166 20.3818 116.787 20.4144 116.308 20.4144C115.279 20.4144 114.544 20.2293 114.102 19.8589C113.667 19.4886 113.449 18.8759 113.449 18.0208V13.4214H112.215V11.6241H113.449V9.60627Z" fill="white"/>
<path d="M126.847 11.6241V20.3818H124.543V18.8051H124.494C124.036 19.9651 123.162 20.5451 121.872 20.5451C120.913 20.5451 120.148 20.2538 119.576 19.671C119.004 19.0828 118.718 18.2822 118.718 17.2692V11.6241H121.104V16.7709C121.104 17.3536 121.243 17.7975 121.52 18.1025C121.803 18.4075 122.209 18.56 122.738 18.56C123.266 18.56 123.685 18.3857 123.996 18.0371C124.306 17.6886 124.461 17.2229 124.461 16.6402V11.6241H126.847Z" fill="white"/>
<path d="M128.399 20.3818V11.6241H130.703V13.2008H130.752C130.904 12.6453 131.16 12.2205 131.52 11.9264C131.879 11.6323 132.318 11.4852 132.835 11.4852C133.085 11.4852 133.311 11.5152 133.513 11.5751V13.6746C133.29 13.5821 133.001 13.5358 132.647 13.5358C132.059 13.5358 131.601 13.7073 131.275 14.0504C130.948 14.3936 130.784 14.8728 130.784 15.4883V20.3818H128.399Z" fill="white"/>
<path d="M138.243 18.5191C138.842 18.5191 139.316 18.2958 139.665 17.8492C140.019 17.3972 140.196 16.7763 140.196 15.9866C140.196 15.1969 140.019 14.5678 139.665 14.0995C139.311 13.6311 138.837 13.3969 138.243 13.3969C137.655 13.3969 137.187 13.6311 136.838 14.0995C136.495 14.5624 136.323 15.1914 136.323 15.9866C136.323 16.7818 136.495 17.4026 136.838 17.8492C137.181 18.2958 137.649 18.5191 138.243 18.5191ZM138.202 23.6822C137.064 23.6822 136.127 23.4317 135.392 22.9306C134.662 22.435 134.248 21.7923 134.15 21.0026H136.487C136.579 21.3076 136.786 21.5527 137.108 21.7379C137.434 21.9285 137.821 22.0238 138.268 22.0238C138.872 22.0238 139.343 21.8686 139.681 21.5581C140.019 21.2532 140.187 20.842 140.187 20.3246V18.7887H140.138C139.931 19.2625 139.586 19.6438 139.101 19.9324C138.616 20.2156 138.061 20.3572 137.434 20.3572C136.356 20.3572 135.493 19.9651 134.845 19.1808C134.202 18.3966 133.881 17.3264 133.881 15.9703C133.881 14.5815 134.202 13.4868 134.845 12.6861C135.487 11.8855 136.364 11.4852 137.475 11.4852C138.096 11.4852 138.643 11.635 139.117 11.9346C139.591 12.2341 139.945 12.6399 140.179 13.1518H140.22V11.6241H142.573V20.2592C142.573 21.2995 142.173 22.13 141.372 22.7509C140.577 23.3718 139.52 23.6822 138.202 23.6822Z" fill="white"/>
<path d="M147.515 18.7969C148.044 18.7969 148.49 18.6444 148.855 18.3394C149.226 18.029 149.411 17.6395 149.411 17.1712V16.5339L147.564 16.6483C147.118 16.681 146.772 16.7926 146.527 16.9833C146.287 17.1739 146.167 17.4244 146.167 17.7349C146.167 18.0616 146.29 18.3203 146.535 18.511C146.78 18.7016 147.107 18.7969 147.515 18.7969ZM146.731 20.5206C145.887 20.5206 145.187 20.2728 144.632 19.7772C144.076 19.2816 143.798 18.6444 143.798 17.8656C143.798 17.0704 144.092 16.4468 144.681 15.9948C145.269 15.5427 146.11 15.284 147.205 15.2187L149.411 15.088V14.5079C149.411 14.1049 149.277 13.789 149.01 13.5603C148.749 13.3315 148.392 13.2172 147.94 13.2172C147.505 13.2172 147.148 13.3152 146.87 13.5113C146.598 13.7073 146.432 13.9715 146.372 14.3037H144.19C144.234 13.4432 144.602 12.7515 145.293 12.2287C145.985 11.7004 146.903 11.4362 148.046 11.4362C149.168 11.4362 150.067 11.7031 150.742 12.2368C151.418 12.7706 151.755 13.4786 151.755 14.3609V20.3818H149.452V19.042H149.403C149.163 19.4995 148.798 19.8616 148.308 20.1285C147.818 20.3899 147.292 20.5206 146.731 20.5206Z" fill="white"/>
<path d="M153.299 20.3818V11.6241H155.603V13.1845H155.652C155.892 12.629 156.24 12.2042 156.698 11.9101C157.161 11.6105 157.724 11.4607 158.389 11.4607C159.358 11.4607 160.107 11.7494 160.636 12.3267C161.164 12.904 161.428 13.7073 161.428 14.7367V20.3818H159.042V15.235C159.042 14.6577 158.906 14.2138 158.634 13.9034C158.362 13.593 157.961 13.4377 157.433 13.4377C156.905 13.4377 156.48 13.6147 156.159 13.9687C155.843 14.3228 155.685 14.7857 155.685 15.3576V20.3818H153.299Z" fill="white"/>
<path d="M173.445 19.3606C172.666 20.1666 171.61 20.5696 170.275 20.5696C168.941 20.5696 167.885 20.1639 167.106 19.3524C166.327 18.5409 165.937 17.4217 165.937 15.9948C165.937 14.5842 166.33 13.4731 167.114 12.6616C167.904 11.8447 168.957 11.4362 170.275 11.4362C171.599 11.4362 172.653 11.8447 173.437 12.6616C174.221 13.4731 174.613 14.5842 174.613 15.9948C174.613 17.4271 174.224 18.5491 173.445 19.3606ZM170.275 18.7479C170.864 18.7479 171.329 18.5082 171.672 18.029C172.016 17.5497 172.187 16.8743 172.187 16.0029C172.187 15.1424 172.016 14.4698 171.672 13.9851C171.329 13.5004 170.864 13.258 170.275 13.258C169.687 13.258 169.219 13.5004 168.87 13.9851C168.527 14.4698 168.356 15.1424 168.356 16.0029C168.356 16.8743 168.527 17.5497 168.87 18.029C169.213 18.5082 169.682 18.7479 170.275 18.7479Z" fill="white"/>
<path d="M181.051 20.5206C180.419 20.5206 179.864 20.3763 179.384 20.0877C178.911 19.799 178.551 19.396 178.306 18.8786H178.257V20.3818H175.904V8.59326H178.29V13.1436H178.339C178.584 12.6208 178.94 12.215 179.409 11.9264C179.877 11.6323 180.422 11.4852 181.043 11.4852C182.148 11.4852 183.017 11.8855 183.649 12.6861C184.286 13.4868 184.605 14.5923 184.605 16.0029C184.605 17.4081 184.289 18.5137 183.657 19.3197C183.025 20.1203 182.157 20.5206 181.051 20.5206ZM180.226 13.3969C179.648 13.3969 179.18 13.6365 178.821 14.1158C178.461 14.5951 178.281 15.2241 178.281 16.0029C178.281 16.7926 178.458 17.4244 178.812 17.8982C179.172 18.3666 179.643 18.6008 180.226 18.6008C180.825 18.6008 181.296 18.3693 181.639 17.9064C181.988 17.438 182.162 16.8035 182.162 16.0029C182.162 15.2078 181.988 14.576 181.639 14.1076C181.291 13.6338 180.819 13.3969 180.226 13.3969Z" fill="white"/>
<path d="M186.753 23.625C186.23 23.625 185.931 23.6168 185.855 23.6005V21.7624C185.904 21.7733 186.102 21.7787 186.451 21.7787C186.892 21.7787 187.227 21.7025 187.456 21.55C187.684 21.4029 187.84 21.1551 187.921 20.8066C187.921 20.8011 187.935 20.733 187.962 20.6023C187.989 20.4716 188 20.4008 187.995 20.3899L184.948 11.6241H187.57L189.433 18.4701H189.474L191.336 11.6241H193.852L190.838 20.5778C190.462 21.6998 189.966 22.4867 189.351 22.9388C188.741 23.3963 187.875 23.625 186.753 23.625Z" fill="white"/>
<path d="M198.403 13.2008C197.885 13.2008 197.452 13.3778 197.104 13.7318C196.761 14.0858 196.567 14.5379 196.524 15.088H200.241C200.214 14.527 200.031 14.0722 199.694 13.7237C199.361 13.3751 198.931 13.2008 198.403 13.2008ZM200.274 17.7022H202.463C202.332 18.5627 201.902 19.2571 201.172 19.7854C200.448 20.3082 199.547 20.5696 198.468 20.5696C197.123 20.5696 196.066 20.1666 195.298 19.3606C194.536 18.5545 194.155 17.4489 194.155 16.0438C194.155 14.6441 194.536 13.5276 195.298 12.6943C196.061 11.8556 197.088 11.4362 198.378 11.4362C199.647 11.4362 200.658 11.8338 201.409 12.629C202.161 13.4241 202.537 14.4889 202.537 15.8232V16.5503H196.499V16.6973C196.499 17.3237 196.682 17.8329 197.047 18.225C197.417 18.6117 197.904 18.8051 198.509 18.8051C198.945 18.8051 199.32 18.707 199.636 18.511C199.952 18.3094 200.165 18.0398 200.274 17.7022Z" fill="white"/>
<path d="M206.245 15.137L209.219 11.6241H211.923L208.582 15.3821L212.087 20.3818H209.342L206.834 16.8199L206.213 17.4898V20.3818H203.827V8.59326H206.213V15.137H206.245Z" fill="white"/>
<path d="M213.41 9.60627H215.796V11.6241H217.413V13.4214H215.796V17.6123C215.796 18.2713 216.139 18.6008 216.825 18.6008C217.048 18.6008 217.241 18.5872 217.405 18.56V20.3164C217.127 20.3818 216.749 20.4144 216.269 20.4144C215.24 20.4144 214.505 20.2293 214.064 19.8589C213.628 19.4886 213.41 18.8759 213.41 18.0208V13.4214H212.176V11.6241H213.41V9.60627Z" fill="white"/>
<path d="M218.777 20.3818V8.59326H221.163V20.3818H218.777Z" fill="white"/>
<path d="M226.154 18.7969C226.683 18.7969 227.129 18.6444 227.494 18.3394C227.864 18.029 228.05 17.6395 228.05 17.1712V16.5339L226.203 16.6483C225.757 16.681 225.411 16.7926 225.166 16.9833C224.926 17.1739 224.806 17.4244 224.806 17.7349C224.806 18.0616 224.929 18.3203 225.174 18.511C225.419 18.7016 225.746 18.7969 226.154 18.7969ZM225.37 20.5206C224.526 20.5206 223.826 20.2728 223.271 19.7772C222.715 19.2816 222.437 18.6444 222.437 17.8656C222.437 17.0704 222.731 16.4468 223.32 15.9948C223.908 15.5427 224.749 15.284 225.844 15.2187L228.05 15.088V14.5079C228.05 14.1049 227.916 13.789 227.649 13.5603C227.388 13.3315 227.031 13.2172 226.579 13.2172C226.143 13.2172 225.787 13.3152 225.509 13.5113C225.237 13.7073 225.071 13.9715 225.011 14.3037H222.829C222.873 13.4432 223.241 12.7515 223.932 12.2287C224.624 11.7004 225.542 11.4362 226.685 11.4362C227.807 11.4362 228.706 11.7031 229.381 12.2368C230.057 12.7706 230.394 13.4786 230.394 14.3609V20.3818H228.09V19.042H228.041C227.802 19.4995 227.437 19.8616 226.947 20.1285C226.457 20.3899 225.931 20.5206 225.37 20.5206Z" fill="white"/>
<path d="M231.938 20.3818V11.6241H234.242V13.2008H234.291C234.444 12.6453 234.7 12.2205 235.059 11.9264C235.418 11.6323 235.857 11.4852 236.374 11.4852C236.625 11.4852 236.851 11.5152 237.052 11.5751V13.6746C236.829 13.5821 236.54 13.5358 236.186 13.5358C235.598 13.5358 235.141 13.7073 234.814 14.0504C234.487 14.3936 234.324 14.8728 234.324 15.4883V20.3818H231.938Z" fill="white"/>
<path d="M240.99 20.5206C239.895 20.5206 239.027 20.1149 238.384 19.3034C237.741 18.4919 237.42 17.3863 237.42 15.9866C237.42 14.5978 237.741 13.5004 238.384 12.6943C239.032 11.8883 239.906 11.4852 241.006 11.4852C241.627 11.4852 242.172 11.635 242.64 11.9346C243.114 12.2341 243.46 12.6317 243.678 13.1273H243.727V8.59326H246.112V20.3818H243.759V18.8786H243.719C243.501 19.3742 243.149 19.7718 242.665 20.0713C242.18 20.3709 241.622 20.5206 240.99 20.5206ZM241.799 13.3969C241.2 13.3969 240.726 13.6311 240.377 14.0995C240.034 14.5678 239.863 15.2023 239.863 16.0029C239.863 16.809 240.034 17.4435 240.377 17.9064C240.726 18.3693 241.2 18.6008 241.799 18.6008C242.392 18.6008 242.864 18.3693 243.212 17.9064C243.566 17.438 243.743 16.8035 243.743 16.0029C243.743 15.2078 243.566 14.576 243.212 14.1076C242.864 13.6338 242.392 13.3969 241.799 13.3969Z" fill="white"/>
<path d="M251.087 18.7969C251.616 18.7969 252.062 18.6444 252.427 18.3394C252.798 18.029 252.983 17.6395 252.983 17.1712V16.5339L251.136 16.6483C250.69 16.681 250.344 16.7926 250.099 16.9833C249.859 17.1739 249.739 17.4244 249.739 17.7349C249.739 18.0616 249.862 18.3203 250.107 18.511C250.352 18.7016 250.679 18.7969 251.087 18.7969ZM250.303 20.5206C249.459 20.5206 248.759 20.2728 248.204 19.7772C247.648 19.2816 247.37 18.6444 247.37 17.8656C247.37 17.0704 247.664 16.4468 248.253 15.9948C248.841 15.5427 249.682 15.284 250.777 15.2187L252.983 15.088V14.5079C252.983 14.1049 252.849 13.789 252.582 13.5603C252.321 13.3315 251.964 13.2172 251.512 13.2172C251.077 13.2172 250.72 13.3152 250.442 13.5113C250.17 13.7073 250.004 13.9715 249.944 14.3037H247.762C247.806 13.4432 248.174 12.7515 248.865 12.2287C249.557 11.7004 250.475 11.4362 251.618 11.4362C252.74 11.4362 253.639 11.7031 254.314 12.2368C254.99 12.7706 255.327 13.4786 255.327 14.3609V20.3818H253.024V19.042H252.975C252.735 19.4995 252.37 19.8616 251.88 20.1285C251.39 20.3899 250.864 20.5206 250.303 20.5206Z" fill="white"/>
<path d="M256.871 20.3818V11.6241H259.175V13.1845H259.224C259.464 12.629 259.812 12.2042 260.27 11.9101C260.733 11.6105 261.297 11.4607 261.961 11.4607C262.93 11.4607 263.679 11.7494 264.208 12.3267C264.736 12.904 265 13.7073 265 14.7367V20.3818H262.615V15.235C262.615 14.6577 262.478 14.2138 262.206 13.9034C261.934 13.593 261.533 13.4377 261.005 13.4377C260.477 13.4377 260.052 13.6147 259.731 13.9687C259.415 14.3228 259.257 14.7857 259.257 15.3576V20.3818H256.871Z" fill="white"/>
<path d="M67.553 33.0199C67.553 32.1866 67.888 31.5194 68.5579 31.0184C69.2278 30.5118 70.1237 30.2586 71.2456 30.2586C72.3403 30.2586 73.2199 30.5146 73.8843 31.0265C74.5488 31.5385 74.8892 32.2193 74.9055 33.0689H72.7079C72.6807 32.7149 72.5336 32.4371 72.2668 32.2356C72.0054 32.0341 71.6541 31.9333 71.2129 31.9333C70.799 31.9333 70.4668 32.0205 70.2163 32.1947C69.9712 32.3636 69.8486 32.5896 69.8486 32.8728C69.8486 33.2976 70.2299 33.5999 70.9923 33.7796L72.6671 34.1391C73.5439 34.3351 74.173 34.6211 74.5542 34.9969C74.9409 35.3672 75.1342 35.8792 75.1342 36.5327C75.1342 37.3932 74.7748 38.0849 74.0559 38.6078C73.337 39.1306 72.3975 39.392 71.2374 39.392C70.0828 39.392 69.1597 39.136 68.468 38.6241C67.7763 38.1121 67.3978 37.4232 67.3324 36.5572H69.6607C69.7206 36.9276 69.8895 37.2135 70.1672 37.415C70.4504 37.6165 70.829 37.7173 71.3028 37.7173C71.7548 37.7173 72.1088 37.6356 72.3648 37.4722C72.6262 37.3034 72.7569 37.0746 72.7569 36.786C72.7569 36.5627 72.6753 36.3857 72.5119 36.255C72.3485 36.1188 72.0707 36.0044 71.6786 35.9118L70.061 35.5524C68.389 35.1711 67.553 34.327 67.553 33.0199Z" fill="white"/>
<path d="M79.7091 37.6192C80.2374 37.6192 80.684 37.4668 81.0489 37.1618C81.4193 36.8513 81.6044 36.4619 81.6044 35.9935V35.3563L79.7581 35.4707C79.3116 35.5034 78.9657 35.615 78.7206 35.8056C78.481 35.9963 78.3612 36.2468 78.3612 36.5572C78.3612 36.884 78.4837 37.1427 78.7288 37.3333C78.9739 37.5239 79.3007 37.6192 79.7091 37.6192ZM78.9249 39.343C78.0807 39.343 77.3808 39.0952 76.8253 38.5996C76.2698 38.104 75.992 37.4668 75.992 36.6879C75.992 35.8928 76.2861 35.2692 76.8743 34.8171C77.4625 34.3651 78.304 34.1064 79.3987 34.041L81.6044 33.9103V33.3303C81.6044 32.9273 81.471 32.6114 81.2041 32.3826C80.9427 32.1539 80.586 32.0395 80.1339 32.0395C79.6982 32.0395 79.3415 32.1376 79.0637 32.3336C78.7914 32.5297 78.6253 32.7938 78.5654 33.1261H76.3842C76.4277 32.2655 76.7954 31.5739 77.487 31.051C78.1787 30.5227 79.0964 30.2586 80.2401 30.2586C81.3621 30.2586 82.2607 30.5255 82.9361 31.0592C83.6114 31.5929 83.9491 32.3009 83.9491 33.1832V39.2041H81.6453V37.8643H81.5963C81.3566 38.3218 80.9917 38.684 80.5016 38.9509C80.0114 39.2123 79.4858 39.343 78.9249 39.343Z" fill="white"/>
<path d="M85.4931 39.2041V30.4465H87.7969V32.0314H87.8459C88.0311 31.4976 88.3469 31.0728 88.7935 30.7569C89.2401 30.441 89.7575 30.2831 90.3457 30.2831C90.9775 30.2831 91.5058 30.441 91.9306 30.7569C92.3554 31.0674 92.6413 31.5085 92.7884 32.0804H92.8374C93.0335 31.5303 93.3739 31.0946 93.8586 30.7733C94.3487 30.4465 94.9152 30.2831 95.5578 30.2831C96.4183 30.2831 97.11 30.5527 97.6329 31.0919C98.1612 31.6311 98.4253 32.3418 98.4253 33.2241V39.2041H96.0398V33.8205C96.0398 33.314 95.9173 32.9273 95.6722 32.6604C95.4271 32.3881 95.0731 32.2519 94.6102 32.2519C94.1581 32.2519 93.7932 32.4017 93.5155 32.7013C93.2432 33.0008 93.107 33.3957 93.107 33.8858V39.2041H90.8114V33.7469C90.8114 33.2786 90.6861 32.9137 90.4356 32.6522C90.1851 32.3854 89.8392 32.2519 89.3981 32.2519C88.946 32.2519 88.5784 32.4072 88.2952 32.7176C88.0174 33.028 87.8786 33.4283 87.8786 33.9185V39.2041H85.4931Z" fill="white"/>
<path d="M103.319 37.6192C103.847 37.6192 104.294 37.4668 104.659 37.1618C105.029 36.8513 105.214 36.4619 105.214 35.9935V35.3563L103.368 35.4707C102.921 35.5034 102.575 35.615 102.33 35.8056C102.091 35.9963 101.971 36.2468 101.971 36.5572C101.971 36.884 102.093 37.1427 102.338 37.3333C102.584 37.5239 102.91 37.6192 103.319 37.6192ZM102.535 39.343C101.69 39.343 100.99 39.0952 100.435 38.5996C99.8795 38.104 99.6017 37.4668 99.6017 36.6879C99.6017 35.8928 99.8958 35.2692 100.484 34.8171C101.072 34.3651 101.914 34.1064 103.008 34.041L105.214 33.9103V33.3303C105.214 32.9273 105.081 32.6114 104.814 32.3826C104.552 32.1539 104.196 32.0395 103.744 32.0395C103.308 32.0395 102.951 32.1376 102.673 32.3336C102.401 32.5297 102.235 32.7938 102.175 33.1261H99.9938C100.037 32.2655 100.405 31.5739 101.097 31.051C101.788 30.5227 102.706 30.2586 103.85 30.2586C104.972 30.2586 105.87 30.5255 106.546 31.0592C107.221 31.5929 107.559 32.3009 107.559 33.1832V39.2041H105.255V37.8643H105.206C104.966 38.3218 104.601 38.684 104.111 38.9509C103.621 39.2123 103.095 39.343 102.535 39.343Z" fill="white"/>
<path d="M109.103 39.2041V30.4465H111.407V32.0232H111.456C111.608 31.4677 111.864 31.0429 112.223 30.7488C112.583 30.4547 113.021 30.3076 113.539 30.3076C113.789 30.3076 114.015 30.3376 114.217 30.3975V32.497C113.994 32.4044 113.705 32.3581 113.351 32.3581C112.763 32.3581 112.305 32.5297 111.978 32.8728C111.652 33.2159 111.488 33.6952 111.488 34.3106V39.2041H109.103Z" fill="white"/>
<path d="M118.367 37.6192C118.895 37.6192 119.342 37.4668 119.707 37.1618C120.077 36.8513 120.262 36.4619 120.262 35.9935V35.3563L118.416 35.4707C117.969 35.5034 117.623 35.615 117.378 35.8056C117.139 35.9963 117.019 36.2468 117.019 36.5572C117.019 36.884 117.141 37.1427 117.387 37.3333C117.632 37.5239 117.958 37.6192 118.367 37.6192ZM117.583 39.343C116.738 39.343 116.039 39.0952 115.483 38.5996C114.928 38.104 114.65 37.4668 114.65 36.6879C114.65 35.8928 114.944 35.2692 115.532 34.8171C116.12 34.3651 116.962 34.1064 118.056 34.041L120.262 33.9103V33.3303C120.262 32.9273 120.129 32.6114 119.862 32.3826C119.6 32.1539 119.244 32.0395 118.792 32.0395C118.356 32.0395 117.999 32.1376 117.721 32.3336C117.449 32.5297 117.283 32.7938 117.223 33.1261H115.042C115.085 32.2655 115.453 31.5739 116.145 31.051C116.836 30.5227 117.754 30.2586 118.898 30.2586C120.02 30.2586 120.918 30.5255 121.594 31.0592C122.269 31.5929 122.607 32.3009 122.607 33.1832V39.2041H120.303V37.8643H120.254C120.014 38.3218 119.649 38.684 119.159 38.9509C118.669 39.2123 118.144 39.343 117.583 39.343Z" fill="white"/>
<path d="M124.208 39.2041V27.4156H126.593V39.2041H124.208Z" fill="white"/>
<path d="M128.244 39.2041V30.4465H130.629V39.2041H128.244ZM130.343 29.123C130.098 29.3627 129.796 29.4825 129.436 29.4825C129.077 29.4825 128.775 29.3627 128.53 29.123C128.285 28.8834 128.162 28.592 128.162 28.2489C128.162 27.9004 128.285 27.609 128.53 27.3748C128.775 27.1351 129.077 27.0153 129.436 27.0153C129.796 27.0153 130.098 27.1351 130.343 27.3748C130.588 27.609 130.711 27.9004 130.711 28.2489C130.711 28.592 130.588 28.8834 130.343 29.123Z" fill="white"/>
<path d="M136.176 39.2041V32.2438H134.983V30.4873H136.176V29.8256C136.176 28.9542 136.4 28.317 136.846 27.914C137.298 27.5109 138.036 27.3094 139.06 27.3094C139.528 27.3094 139.934 27.3448 140.277 27.4156V28.9923C140.103 28.9597 139.888 28.9433 139.632 28.9433C138.88 28.9433 138.505 29.2646 138.505 29.9073V30.4873H140.245V32.2438H138.562V39.2041H136.176Z" fill="white"/>
<path d="M148.447 38.1829C147.668 38.989 146.611 39.392 145.277 39.392C143.943 39.392 142.886 38.9863 142.107 38.1748C141.328 37.3633 140.939 36.2441 140.939 34.8171C140.939 33.4065 141.331 32.2955 142.115 31.484C142.905 30.6671 143.959 30.2586 145.277 30.2586C146.6 30.2586 147.654 30.6671 148.439 31.484C149.223 32.2955 149.615 33.4065 149.615 34.8171C149.615 36.2495 149.226 37.3714 148.447 38.1829ZM145.277 37.5702C145.865 37.5702 146.331 37.3306 146.674 36.8513C147.017 36.3721 147.189 35.6967 147.189 34.8253C147.189 33.9648 147.017 33.2922 146.674 32.8075C146.331 32.3227 145.865 32.0804 145.277 32.0804C144.689 32.0804 144.22 32.3227 143.872 32.8075C143.529 33.2922 143.357 33.9648 143.357 34.8253C143.357 35.6967 143.529 36.3721 143.872 36.8513C144.215 37.3306 144.683 37.5702 145.277 37.5702Z" fill="white"/>
<path d="M151.755 42.4474C151.232 42.4474 150.933 42.4392 150.857 42.4229V40.5848C150.906 40.5956 151.105 40.6011 151.453 40.6011C151.894 40.6011 152.229 40.5248 152.458 40.3723C152.687 40.2253 152.842 39.9775 152.924 39.6289C152.924 39.6235 152.937 39.5554 152.964 39.4247C152.992 39.294 153.003 39.2232 152.997 39.2123L149.95 30.4465H152.572L154.435 37.2925H154.476L156.338 30.4465H158.855L155.84 39.4002C155.464 40.5221 154.969 41.3091 154.353 41.7612C153.743 42.2186 152.877 42.4474 151.755 42.4474Z" fill="white"/>
<path d="M162.727 39.343C161.632 39.343 160.763 38.9373 160.121 38.1258C159.478 37.3143 159.157 36.2087 159.157 34.809C159.157 33.4202 159.478 32.3227 160.121 31.5167C160.769 30.7106 161.643 30.3076 162.743 30.3076C163.364 30.3076 163.909 30.4574 164.377 30.7569C164.851 31.0565 165.197 31.4541 165.415 31.9497H165.464V27.4156H167.849V39.2041H165.496V37.7009H165.455C165.238 38.1966 164.886 38.5941 164.402 38.8937C163.917 39.1932 163.359 39.343 162.727 39.343ZM163.536 32.2193C162.937 32.2193 162.463 32.4534 162.114 32.9218C161.771 33.3902 161.6 34.0247 161.6 34.8253C161.6 35.6314 161.771 36.2658 162.114 36.7288C162.463 37.1917 162.937 37.4232 163.536 37.4232C164.129 37.4232 164.6 37.1917 164.949 36.7288C165.303 36.2604 165.48 35.6259 165.48 34.8253C165.48 34.0301 165.303 33.3984 164.949 32.93C164.6 32.4562 164.129 32.2193 163.536 32.2193Z" fill="white"/>
<path d="M172.824 37.6192C173.353 37.6192 173.799 37.4668 174.164 37.1618C174.534 36.8513 174.72 36.4619 174.72 35.9935V35.3563L172.873 35.4707C172.427 35.5034 172.081 35.615 171.836 35.8056C171.596 35.9963 171.476 36.2468 171.476 36.5572C171.476 36.884 171.599 37.1427 171.844 37.3333C172.089 37.5239 172.416 37.6192 172.824 37.6192ZM172.04 39.343C171.196 39.343 170.496 39.0952 169.94 38.5996C169.385 38.104 169.107 37.4668 169.107 36.6879C169.107 35.8928 169.401 35.2692 169.99 34.8171C170.578 34.3651 171.419 34.1064 172.514 34.041L174.72 33.9103V33.3303C174.72 32.9273 174.586 32.6114 174.319 32.3826C174.058 32.1539 173.701 32.0395 173.249 32.0395C172.813 32.0395 172.457 32.1376 172.179 32.3336C171.907 32.5297 171.74 32.7938 171.681 33.1261H169.499C169.543 32.2655 169.911 31.5739 170.602 31.051C171.294 30.5227 172.212 30.2586 173.355 30.2586C174.477 30.2586 175.376 30.5255 176.051 31.0592C176.727 31.5929 177.064 32.3009 177.064 33.1832V39.2041H174.76V37.8643H174.711C174.472 38.3218 174.107 38.684 173.617 38.9509C173.127 39.2123 172.601 39.343 172.04 39.343Z" fill="white"/>
<path d="M178.665 39.2041V27.4156H181.051V39.2041H178.665Z" fill="white"/>
<path d="M186.042 37.6192C186.571 37.6192 187.017 37.4668 187.382 37.1618C187.753 36.8513 187.938 36.4619 187.938 35.9935V35.3563L186.091 35.4707C185.645 35.5034 185.299 35.615 185.054 35.8056C184.814 35.9963 184.694 36.2468 184.694 36.5572C184.694 36.884 184.817 37.1427 185.062 37.3333C185.307 37.5239 185.634 37.6192 186.042 37.6192ZM185.258 39.343C184.414 39.343 183.714 39.0952 183.159 38.5996C182.603 38.104 182.325 37.4668 182.325 36.6879C182.325 35.8928 182.619 35.2692 183.208 34.8171C183.796 34.3651 184.637 34.1064 185.732 34.041L187.938 33.9103V33.3303C187.938 32.9273 187.804 32.6114 187.537 32.3826C187.276 32.1539 186.919 32.0395 186.467 32.0395C186.032 32.0395 185.675 32.1376 185.397 32.3336C185.125 32.5297 184.959 32.7938 184.899 33.1261H182.717C182.761 32.2655 183.129 31.5739 183.82 31.051C184.512 30.5227 185.43 30.2586 186.573 30.2586C187.695 30.2586 188.594 30.5255 189.269 31.0592C189.945 31.5929 190.282 32.3009 190.282 33.1832V39.2041H187.979V37.8643H187.93C187.69 38.3218 187.325 38.684 186.835 38.9509C186.345 39.2123 185.819 39.343 185.258 39.343Z" fill="white"/>
<path d="M191.826 39.2041V30.4465H194.13V32.0069H194.179C194.419 31.4513 194.767 31.0265 195.225 30.7324C195.688 30.4329 196.251 30.2831 196.916 30.2831C197.885 30.2831 198.634 30.5718 199.163 31.1491C199.691 31.7264 199.955 32.5297 199.955 33.559V39.2041H197.57V34.0574C197.57 33.4801 197.433 33.0362 197.161 32.7258C196.889 32.4153 196.488 32.2601 195.96 32.2601C195.432 32.2601 195.007 32.4371 194.686 32.7911C194.37 33.1451 194.212 33.6081 194.212 34.1799V39.2041H191.826Z" fill="white"/>
<path d="M201.507 39.2041V30.4465H203.893V39.2041H201.507ZM203.607 29.123C203.362 29.3627 203.059 29.4825 202.7 29.4825C202.34 29.4825 202.038 29.3627 201.793 29.123C201.548 28.8834 201.425 28.592 201.425 28.2489C201.425 27.9004 201.548 27.609 201.793 27.3748C202.038 27.1351 202.34 27.0153 202.7 27.0153C203.059 27.0153 203.362 27.1351 203.607 27.3748C203.852 27.609 203.974 27.9004 203.974 28.2489C203.974 28.592 203.852 28.8834 203.607 29.123Z" fill="white"/>
<path d="M205.339 33.0199C205.339 32.1866 205.674 31.5194 206.343 31.0184C207.013 30.5118 207.909 30.2586 209.031 30.2586C210.126 30.2586 211.005 30.5146 211.67 31.0265C212.334 31.5385 212.675 32.2193 212.691 33.0689H210.494C210.466 32.7149 210.319 32.4371 210.052 32.2356C209.791 32.0341 209.44 31.9333 208.999 31.9333C208.585 31.9333 208.252 32.0205 208.002 32.1947C207.757 32.3636 207.634 32.5896 207.634 32.8728C207.634 33.2976 208.015 33.5999 208.778 33.7796L210.453 34.1391C211.33 34.3351 211.959 34.6211 212.34 34.9969C212.727 35.3672 212.92 35.8792 212.92 36.5327C212.92 37.3932 212.56 38.0849 211.841 38.6078C211.123 39.1306 210.183 39.392 209.023 39.392C207.868 39.392 206.945 39.136 206.254 38.6241C205.562 38.1121 205.183 37.4232 205.118 36.5572H207.446C207.506 36.9276 207.675 37.2135 207.953 37.415C208.236 37.6165 208.615 37.7173 209.088 37.7173C209.54 37.7173 209.894 37.6356 210.15 37.4722C210.412 37.3034 210.543 37.0746 210.543 36.786C210.543 36.5627 210.461 36.3857 210.297 36.255C210.134 36.1188 209.856 36.0044 209.464 35.9118L207.847 35.5524C206.175 35.1711 205.339 34.327 205.339 33.0199Z" fill="white"/>
<path d="M214.17 39.2041V27.4156H216.514V32.0069H216.563C216.798 31.4513 217.149 31.0265 217.617 30.7324C218.091 30.4329 218.658 30.2831 219.317 30.2831C220.281 30.2831 221.029 30.5772 221.563 31.1654C222.102 31.7482 222.372 32.5488 222.372 33.5672V39.2041H219.986V34.0737C219.986 33.5019 219.845 33.058 219.562 32.7421C219.284 32.4208 218.878 32.2601 218.344 32.2601C217.789 32.2601 217.35 32.4398 217.029 32.7993C216.713 33.1533 216.555 33.6217 216.555 34.2044V39.2041H214.17Z" fill="white"/>
<path d="M223.9 39.2041V30.4465H226.203V32.0069H226.252C226.492 31.4513 226.841 31.0265 227.298 30.7324C227.761 30.4329 228.325 30.2831 228.989 30.2831C229.959 30.2831 230.707 30.5718 231.236 31.1491C231.764 31.7264 232.028 32.5297 232.028 33.559V39.2041H229.643V34.0574C229.643 33.4801 229.507 33.0362 229.234 32.7258C228.962 32.4153 228.562 32.2601 228.033 32.2601C227.505 32.2601 227.08 32.4371 226.759 32.7911C226.443 33.1451 226.285 33.6081 226.285 34.1799V39.2041H223.9Z" fill="white"/>
<path d="M233.58 39.2041V30.4465H235.966V39.2041H233.58ZM235.68 29.123C235.435 29.3627 235.133 29.4825 234.773 29.4825C234.414 29.4825 234.111 29.3627 233.866 29.123C233.621 28.8834 233.499 28.592 233.499 28.2489C233.499 27.9004 233.621 27.609 233.866 27.3748C234.111 27.1351 234.414 27.0153 234.773 27.0153C235.133 27.0153 235.435 27.1351 235.68 27.3748C235.925 27.609 236.048 27.9004 236.048 28.2489C236.048 28.592 235.925 28.8834 235.68 29.123Z" fill="white"/>
<path d="M68.3373 47.251H70.7228V49.2689H72.3403V51.0661H70.7228V55.2571C70.7228 55.9161 71.0659 56.2456 71.7521 56.2456C71.9754 56.2456 72.1687 56.2319 72.3321 56.2047V57.9611C72.0544 58.0265 71.6759 58.0592 71.1966 58.0592C70.1672 58.0592 69.432 57.874 68.9908 57.5036C68.5551 57.1333 68.3373 56.5206 68.3373 55.6655V51.0661H67.1037V49.2689H68.3373V47.251Z" fill="white"/>
<path d="M76.9479 56.4416C77.4762 56.4416 77.9227 56.2891 78.2876 55.9841C78.658 55.6737 78.8432 55.2843 78.8432 54.8159V54.1787L76.9969 54.2931C76.5503 54.3257 76.2044 54.4374 75.9594 54.628C75.7197 54.8186 75.5999 55.0692 75.5999 55.3796C75.5999 55.7064 75.7224 55.9651 75.9675 56.1557C76.2126 56.3463 76.5394 56.4416 76.9479 56.4416ZM76.1636 58.1654C75.3194 58.1654 74.6196 57.9176 74.0641 57.422C73.5085 56.9263 73.2308 56.2891 73.2308 55.5103C73.2308 54.7151 73.5249 54.0915 74.1131 53.6395C74.7013 53.1875 75.5427 52.9288 76.6374 52.8634L78.8432 52.7327V52.1527C78.8432 51.7496 78.7097 51.4338 78.4429 51.205C78.1814 50.9763 77.8247 50.8619 77.3727 50.8619C76.937 50.8619 76.5802 50.9599 76.3025 51.156C76.0302 51.3521 75.8641 51.6162 75.8041 51.9484H73.6229C73.6665 51.0879 74.0341 50.3962 74.7258 49.8734C75.4175 49.3451 76.3352 49.081 77.4789 49.081C78.6008 49.081 79.4994 49.3478 80.1748 49.8816C80.8501 50.4153 81.1878 51.1233 81.1878 52.0056V58.0265H78.884V56.6867H78.835C78.5954 57.1442 78.2305 57.5064 77.7403 57.7732C77.2501 58.0347 76.7246 58.1654 76.1636 58.1654Z" fill="white"/>
<path d="M82.5848 51.8422C82.5848 51.0089 82.9197 50.3418 83.5896 49.8407C84.2595 49.3342 85.1554 49.081 86.2774 49.081C87.3721 49.081 88.2516 49.3369 88.9161 49.8489C89.5805 50.3608 89.9209 51.0416 89.9373 51.8912H87.7397C87.7124 51.5372 87.5654 51.2595 87.2985 51.058C87.0371 50.8565 86.6858 50.7557 86.2447 50.7557C85.8308 50.7557 85.4985 50.8428 85.248 51.0171C85.0029 51.186 84.8804 51.412 84.8804 51.6952C84.8804 52.12 85.2616 52.4223 86.0241 52.602L87.6988 52.9614C88.5757 53.1575 89.2047 53.4434 89.586 53.8192C89.9727 54.1896 90.166 54.7015 90.166 55.3551C90.166 56.2156 89.8065 56.9073 89.0876 57.4301C88.3687 57.953 87.4292 58.2144 86.2692 58.2144C85.1146 58.2144 84.1914 57.9584 83.4997 57.4465C82.8081 56.9345 82.4296 56.2456 82.3642 55.3796H84.6925C84.7524 55.7499 84.9212 56.0359 85.199 56.2374C85.4822 56.4389 85.8607 56.5397 86.3345 56.5397C86.7866 56.5397 87.1406 56.458 87.3966 56.2946C87.658 56.1257 87.7887 55.897 87.7887 55.6083C87.7887 55.385 87.707 55.208 87.5436 55.0773C87.3802 54.9412 87.1025 54.8268 86.7103 54.7342L85.0928 54.3748C83.4208 53.9935 82.5848 53.1493 82.5848 51.8422Z" fill="white"/>
<path d="M91.4159 58.0265V46.238H93.7605V50.8292H93.8096C94.0438 50.2737 94.395 49.8489 94.8634 49.5548C95.3372 49.2552 95.9037 49.1055 96.5627 49.1055C97.5267 49.1055 98.2755 49.3996 98.8093 49.9878C99.3484 50.5705 99.618 51.3711 99.618 52.3896V58.0265H97.2326V52.8961C97.2326 52.3242 97.091 51.8804 96.8077 51.5645C96.53 51.2431 96.1242 51.0825 95.5905 51.0825C95.035 51.0825 94.5966 51.2622 94.2752 51.6217C93.9593 51.9757 93.8014 52.444 93.8014 53.0268V58.0265H91.4159Z" fill="white"/>
<path d="M103.621 52.7817L106.595 49.2689H109.299L105.958 53.0268L109.462 58.0265H106.717L104.209 54.4646L103.588 55.1345V58.0265H101.203V46.238H103.588V52.7817H103.621Z" fill="white"/>
<path d="M110.189 58.0265V49.2689H112.575V58.0265H110.189ZM112.289 47.9454C112.044 48.185 111.741 48.3049 111.382 48.3049C111.023 48.3049 110.72 48.185 110.475 47.9454C110.23 47.7058 110.108 47.4144 110.108 47.0713C110.108 46.7227 110.23 46.4313 110.475 46.1972C110.72 45.9575 111.023 45.8377 111.382 45.8377C111.741 45.8377 112.044 45.9575 112.289 46.1972C112.534 46.4313 112.656 46.7227 112.656 47.0713C112.656 47.4144 112.534 47.7058 112.289 47.9454Z" fill="white"/>
<path d="M114.225 58.0265V46.238H116.61V58.0265H114.225Z" fill="white"/>
<path d="M125.466 50.8456C124.949 50.8456 124.516 51.0226 124.167 51.3766C123.824 51.7306 123.631 52.1826 123.587 52.7327H127.304C127.277 52.1717 127.095 51.717 126.757 51.3684C126.425 51.0198 125.994 50.8456 125.466 50.8456ZM127.337 55.3469H129.526C129.396 56.2074 128.965 56.9018 128.236 57.4301C127.511 57.953 126.61 58.2144 125.531 58.2144C124.186 58.2144 123.13 57.8114 122.362 57.0053C121.599 56.1993 121.218 55.0937 121.218 53.6885C121.218 52.2888 121.599 51.1723 122.362 50.3391C123.124 49.5003 124.151 49.081 125.442 49.081C126.711 49.081 127.721 49.4785 128.472 50.2737C129.224 51.0689 129.6 52.1336 129.6 53.4679V54.195H123.563V54.3421C123.563 54.9684 123.745 55.4776 124.11 55.8698C124.48 56.2564 124.968 56.4498 125.572 56.4498C126.008 56.4498 126.384 56.3518 126.7 56.1557C127.016 55.9542 127.228 55.6846 127.337 55.3469Z" fill="white"/>
<path d="M131.471 47.251H133.856V49.2689H135.474V51.0661H133.856V55.2571C133.856 55.9161 134.199 56.2456 134.885 56.2456C135.109 56.2456 135.302 56.2319 135.465 56.2047V57.9611C135.188 58.0265 134.809 58.0592 134.33 58.0592C133.301 58.0592 132.565 57.874 132.124 57.5036C131.688 57.1333 131.471 56.5206 131.471 55.6655V51.0661H130.237V49.2689H131.471V47.251Z" fill="white"/>
<path d="M136.822 58.0265V49.2689H139.207V58.0265H136.822ZM138.921 47.9454C138.676 48.185 138.374 48.3049 138.014 48.3049C137.655 48.3049 137.353 48.185 137.108 47.9454C136.862 47.7058 136.74 47.4144 136.74 47.0713C136.74 46.7227 136.862 46.4313 137.108 46.1972C137.353 45.9575 137.655 45.8377 138.014 45.8377C138.374 45.8377 138.676 45.9575 138.921 46.1972C139.166 46.4313 139.289 46.7227 139.289 47.0713C139.289 47.4144 139.166 47.7058 138.921 47.9454Z" fill="white"/>
<path d="M140.653 51.8422C140.653 51.0089 140.988 50.3418 141.658 49.8407C142.328 49.3342 143.224 49.081 144.346 49.081C145.44 49.081 146.32 49.3369 146.984 49.8489C147.649 50.3608 147.989 51.0416 148.006 51.8912H145.808C145.781 51.5372 145.634 51.2595 145.367 51.058C145.105 50.8565 144.754 50.7557 144.313 50.7557C143.899 50.7557 143.567 50.8428 143.316 51.0171C143.071 51.186 142.949 51.412 142.949 51.6952C142.949 52.12 143.33 52.4223 144.092 52.602L145.767 52.9614C146.644 53.1575 147.273 53.4434 147.654 53.8192C148.041 54.1896 148.234 54.7015 148.234 55.3551C148.234 56.2156 147.875 56.9073 147.156 57.4301C146.437 57.953 145.498 58.2144 144.337 58.2144C143.183 58.2144 142.26 57.9584 141.568 57.4465C140.876 56.9345 140.498 56.2456 140.433 55.3796H142.761C142.821 55.7499 142.99 56.0359 143.267 56.2374C143.551 56.4389 143.929 56.5397 144.403 56.5397C144.855 56.5397 145.209 56.458 145.465 56.2946C145.726 56.1257 145.857 55.897 145.857 55.6083C145.857 55.385 145.775 55.208 145.612 55.0773C145.449 54.9412 145.171 54.8268 144.779 54.7342L143.161 54.3748C141.489 53.9935 140.653 53.1493 140.653 51.8422Z" fill="white"/>
<path d="M149.484 58.0265V46.238H151.829V50.8292H151.878C152.112 50.2737 152.463 49.8489 152.932 49.5548C153.406 49.2552 153.972 49.1055 154.631 49.1055C155.595 49.1055 156.344 49.3996 156.878 49.9878C157.417 50.5705 157.686 51.3711 157.686 52.3896V58.0265H155.301V52.8961C155.301 52.3242 155.159 51.8804 154.876 51.5645C154.598 51.2431 154.193 51.0825 153.659 51.0825C153.103 51.0825 152.665 51.2622 152.344 51.6217C152.028 51.9757 151.87 52.444 151.87 53.0268V58.0265H149.484Z" fill="white"/>
<path d="M162.531 58.0265V49.2689H164.835V50.8537H164.884C165.069 50.32 165.385 49.8952 165.831 49.5793C166.278 49.2634 166.795 49.1055 167.383 49.1055C168.015 49.1055 168.544 49.2634 168.968 49.5793C169.393 49.8897 169.679 50.3309 169.826 50.9027H169.875C170.071 50.3527 170.412 49.917 170.896 49.5956C171.386 49.2689 171.953 49.1055 172.596 49.1055C173.456 49.1055 174.148 49.3751 174.671 49.9142C175.199 50.4534 175.463 51.1642 175.463 52.0465V58.0265H173.078V52.6428C173.078 52.1363 172.955 51.7496 172.71 51.4828C172.465 51.2105 172.111 51.0743 171.648 51.0743C171.196 51.0743 170.831 51.2241 170.553 51.5236C170.281 51.8232 170.145 52.218 170.145 52.7082V58.0265H167.849V52.5693C167.849 52.1009 167.724 51.736 167.473 51.4746C167.223 51.2077 166.877 51.0743 166.436 51.0743C165.984 51.0743 165.616 51.2295 165.333 51.54C165.055 51.8504 164.916 52.2507 164.916 52.7409V58.0265H162.531Z" fill="white"/>
<path d="M180.357 56.4416C180.885 56.4416 181.331 56.2891 181.696 55.9841C182.067 55.6737 182.252 55.2843 182.252 54.8159V54.1787L180.406 54.2931C179.959 54.3257 179.613 54.4374 179.368 54.628C179.128 54.8186 179.009 55.0692 179.009 55.3796C179.009 55.7064 179.131 55.9651 179.376 56.1557C179.621 56.3463 179.948 56.4416 180.357 56.4416ZM179.572 58.1654C178.728 58.1654 178.028 57.9176 177.473 57.422C176.917 56.9263 176.639 56.2891 176.639 55.5103C176.639 54.7151 176.934 54.0915 177.522 53.6395C178.11 53.1875 178.951 52.9288 180.046 52.8634L182.252 52.7327V52.1527C182.252 51.7496 182.118 51.4338 181.852 51.205C181.59 50.9763 181.233 50.8619 180.781 50.8619C180.346 50.8619 179.989 50.9599 179.711 51.156C179.439 51.3521 179.273 51.6162 179.213 51.9484H177.032C177.075 51.0879 177.443 50.3962 178.134 49.8734C178.826 49.3451 179.744 49.081 180.888 49.081C182.009 49.081 182.908 49.3478 183.583 49.8816C184.259 50.4153 184.596 51.1233 184.596 52.0056V58.0265H182.293V56.6867H182.244C182.004 57.1442 181.639 57.5064 181.149 57.7732C180.659 58.0347 180.133 58.1654 179.572 58.1654Z" fill="white"/>
<path d="M186.14 58.0265V49.2689H188.444V50.8456H188.493C188.646 50.29 188.902 49.8652 189.261 49.5711C189.621 49.277 190.059 49.13 190.576 49.13C190.827 49.13 191.053 49.1599 191.255 49.2198V51.3194C191.031 51.2268 190.743 51.1805 190.389 51.1805C189.8 51.1805 189.343 51.3521 189.016 51.6952C188.689 52.0383 188.526 52.5176 188.526 53.133V58.0265H186.14Z" fill="white"/>
<path d="M194.71 52.7817L197.684 49.2689H200.388L197.047 53.0268L200.551 58.0265H197.806L195.298 54.4646L194.678 55.1345V58.0265H192.292V46.238H194.678V52.7817H194.71Z" fill="white"/>
<path d="M204.571 56.4416C205.099 56.4416 205.546 56.2891 205.91 55.9841C206.281 55.6737 206.466 55.2843 206.466 54.8159V54.1787L204.62 54.2931C204.173 54.3257 203.827 54.4374 203.582 54.628C203.343 54.8186 203.223 55.0692 203.223 55.3796C203.223 55.7064 203.345 55.9651 203.59 56.1557C203.835 56.3463 204.162 56.4416 204.571 56.4416ZM203.786 58.1654C202.942 58.1654 202.242 57.9176 201.687 57.422C201.131 56.9263 200.854 56.2891 200.854 55.5103C200.854 54.7151 201.148 54.0915 201.736 53.6395C202.324 53.1875 203.166 52.9288 204.26 52.8634L206.466 52.7327V52.1527C206.466 51.7496 206.333 51.4338 206.066 51.205C205.804 50.9763 205.448 50.8619 204.996 50.8619C204.56 50.8619 204.203 50.9599 203.925 51.156C203.653 51.3521 203.487 51.6162 203.427 51.9484H201.246C201.289 51.0879 201.657 50.3962 202.349 49.8734C203.04 49.3451 203.958 49.081 205.102 49.081C206.224 49.081 207.122 49.3478 207.798 49.8816C208.473 50.4153 208.811 51.1233 208.811 52.0056V58.0265H206.507V56.6867H206.458C206.218 57.1442 205.853 57.5064 205.363 57.7732C204.873 58.0347 204.347 58.1654 203.786 58.1654Z" fill="white"/>
<path d="M210.142 58.0265V56.6704L214.505 51.1397V51.0906H210.208V49.2689H217.274V50.7802L213.173 56.1557V56.1965H217.372V58.0265H210.142Z" fill="white"/>
<path d="M218.81 58.0265V49.2689H221.195V58.0265H218.81ZM220.91 47.9454C220.664 48.185 220.362 48.3049 220.003 48.3049C219.643 48.3049 219.341 48.185 219.096 47.9454C218.851 47.7058 218.728 47.4144 218.728 47.0713C218.728 46.7227 218.851 46.4313 219.096 46.1972C219.341 45.9575 219.643 45.8377 220.003 45.8377C220.362 45.8377 220.664 45.9575 220.91 46.1972C221.155 46.4313 221.277 46.7227 221.277 47.0713C221.277 47.4144 221.155 47.7058 220.91 47.9454Z" fill="white"/>
</g>
<path opacity="0.99" d="M88.6465 8.59324L90.4274 8.59324L89.8147 13.1926L87.5518 13.1926L88.6465 8.59324Z" fill="white"/>
<path opacity="0.5" d="M0 21.2398L25.9813 40.5158V65.0514L0 45.7754V21.2398Z" fill="white"/>
<path opacity="0.5" d="M0 44.674L25.9813 25.3979V0.86234L0 20.1383V44.674Z" fill="white"/>
<path opacity="0.5" d="M52.9815 21.2398L27.0002 40.5158V65.0514L52.9815 45.7754V21.2398Z" fill="white"/>
<path opacity="0.5" d="M52.9815 44.674L27.0002 25.3979V0.86234L52.9815 20.1383V44.674Z" fill="white"/>
</svg>
